<svg width="407" height="316" viewBox="0 0 407 316" fill="none" xmlns="http://www.w3.org/2000/svg">
<g clip-path="url(#clip0_2003_492)">
<g style="mix-blend-mode:multiply">
<path d="M392.957 0.488281C400.26 0.488281 406.18 6.4084 406.18 13.7112L406.18 177.575C406.18 184.878 400.26 190.798 392.957 190.798L280.562 190.798C273.259 190.798 267.339 184.878 267.339 177.575L267.339 13.7112C267.339 6.40841 273.259 0.488282 280.562 0.488282L392.957 0.488281Z" fill="#FE5570"/>
</g>
<g style="mix-blend-mode:multiply">
<rect x="139.244" y="10.8639" width="180.991" height="138.841" rx="13.223" transform="rotate(90 139.244 10.8639)" fill="#0092C7"/>
</g>
<g style="mix-blend-mode:multiply">
<rect x="272.616" y="26.1765" width="164.622" height="138.841" rx="13.223" transform="rotate(90 272.616 26.1765)" fill="#EF94E1"/>
</g>
<path d="M167.02 130.726L164.975 131.591C164.451 129.782 163.192 128.471 161.016 128.471C158.106 128.471 155.877 131.329 155.877 135.734V135.996C156.742 134.344 158.578 133.033 160.964 133.033C164.451 133.033 167.099 135.76 167.099 139.3C167.099 142.97 164.267 145.776 160.57 145.776C155.746 145.776 153.57 141.476 153.57 136.258C153.57 130.28 156.716 126.374 161.095 126.374C164.32 126.374 166.234 128.131 167.02 130.726ZM164.792 139.431C164.792 136.992 162.982 135.105 160.597 135.105C158.211 135.105 156.349 136.992 156.349 139.431C156.349 141.869 158.184 143.704 160.57 143.704C162.93 143.704 164.792 141.869 164.792 139.431ZM180.602 128.838H171.582V132.063H169.38V126.662H183.276V128.838C178.688 133.951 177.351 138.697 177.351 145.487H174.807C174.807 138.172 176.826 133.06 180.602 128.838ZM184.404 130.936C184.404 128.235 185.583 126.374 187.655 126.374C189.726 126.374 190.932 128.235 190.932 130.936C190.932 133.636 189.726 135.472 187.655 135.472C185.583 135.472 184.404 133.636 184.404 130.936ZM199.191 126.662L186.632 145.487H184.404L196.962 126.662H199.191ZM186.082 130.936C186.082 132.719 186.606 133.846 187.655 133.846C188.703 133.846 189.202 132.719 189.202 130.936C189.202 129.153 188.703 127.999 187.655 127.999C186.606 127.999 186.082 129.153 186.082 130.936ZM199.191 141.214C199.191 143.914 197.985 145.776 195.94 145.776C193.842 145.776 192.662 143.914 192.662 141.214C192.662 138.513 193.842 136.678 195.94 136.678C197.985 136.678 199.191 138.513 199.191 141.214ZM194.367 141.214C194.367 142.997 194.865 144.15 195.94 144.15C196.962 144.15 197.487 142.997 197.487 141.214C197.487 139.431 196.962 138.303 195.94 138.303C194.865 138.303 194.367 139.431 194.367 141.214Z" fill="white"/>
<path d="M155.265 161.918H156.537L159.115 170.146H158.004L157.339 167.98H154.44L153.775 170.146H152.698L155.265 161.918ZM155.884 163.236L154.726 167.018H157.041L155.884 163.236ZM163.103 170.272C162.29 170.272 161.682 169.871 161.338 169.264V172.209H160.307V164.153H161.338V165.035C161.682 164.439 162.29 164.038 163.103 164.038C164.708 164.038 165.613 165.459 165.613 167.155C165.613 168.84 164.708 170.272 163.103 170.272ZM161.316 166.96V167.373C161.316 168.748 162.129 169.367 162.897 169.367C163.974 169.367 164.57 168.45 164.57 167.155C164.57 165.86 163.974 164.943 162.897 164.943C162.129 164.943 161.316 165.539 161.316 166.96ZM169.979 170.272C169.165 170.272 168.558 169.871 168.214 169.264V172.209H167.183V164.153H168.214V165.035C168.558 164.439 169.165 164.038 169.979 164.038C171.583 164.038 172.489 165.459 172.489 167.155C172.489 168.84 171.583 170.272 169.979 170.272ZM168.191 166.96V167.373C168.191 168.748 169.005 169.367 169.773 169.367C170.85 169.367 171.446 168.45 171.446 167.155C171.446 165.86 170.85 164.943 169.773 164.943C169.005 164.943 168.191 165.539 168.191 166.96ZM176.683 170.272C174.964 170.272 173.795 169 173.795 167.155C173.795 165.367 174.964 164.038 176.637 164.038C178.356 164.038 179.261 165.31 179.261 166.972V167.316H174.792C174.861 168.576 175.606 169.378 176.683 169.378C177.531 169.378 178.127 168.943 178.321 168.232L179.215 168.553C178.837 169.619 177.909 170.272 176.683 170.272ZM176.637 164.921C175.709 164.921 175.044 165.505 174.849 166.525H178.218C178.195 165.677 177.714 164.921 176.637 164.921ZM182.653 170.249C181.542 170.249 180.636 169.607 180.636 168.53C180.636 167.338 181.61 166.834 182.94 166.582L184.544 166.273V166.021C184.544 165.333 184.12 164.932 183.272 164.932C182.504 164.932 182 165.31 181.794 165.975L180.831 165.723C181.141 164.737 182.034 164.038 183.318 164.038C184.704 164.038 185.552 164.691 185.552 165.975V168.863C185.552 169.321 185.862 169.413 186.286 169.321V170.146C185.323 170.261 184.75 170.077 184.601 169.447C184.212 169.917 183.513 170.249 182.653 170.249ZM184.544 168.072V167.075L183.203 167.327C182.321 167.499 181.679 167.762 181.679 168.484C181.679 169.069 182.115 169.413 182.802 169.413C183.719 169.413 184.544 168.84 184.544 168.072ZM187.776 170.146V169.264H189.987V162.801H187.776V161.918H191.019V169.264H193.23V170.146H187.776Z" fill="white"/>
<path d="M17.0988 170.146V161.918H18.8521C21.3388 161.918 22.7827 163.522 22.7827 166.032C22.7827 168.542 21.3388 170.146 18.8521 170.146H17.0988ZM18.176 169.195H18.8521C20.7544 169.195 21.6941 167.946 21.6941 166.032C21.6941 164.107 20.7544 162.869 18.8407 162.869H18.176V169.195ZM26.3008 163.11V161.918H27.4239V163.11H26.3008ZM24.135 170.146V169.264H26.3467V165.035H24.135V164.153H27.378V169.264H29.5897V170.146H24.135ZM30.6784 168.84L31.5264 168.278C31.8817 168.977 32.7182 169.413 33.6235 169.413C34.4028 169.413 35.0903 169.092 35.0903 168.484C35.0903 167.808 34.4486 167.717 33.2912 167.51C32.2025 167.304 31.0566 167.075 31.0566 165.849C31.0566 164.783 32.088 164.038 33.4975 164.038C34.7122 164.038 35.6404 164.588 36.03 165.299L35.2393 165.86C34.907 165.253 34.2767 164.886 33.4058 164.886C32.6151 164.886 32.0765 165.23 32.0765 165.769C32.0765 166.33 32.7411 166.445 33.6693 166.628C34.8153 166.869 36.1331 167.063 36.1331 168.37C36.1331 169.516 34.9872 170.272 33.5662 170.272C32.3515 170.272 31.1827 169.768 30.6784 168.84ZM39.17 168.221V165.035H37.4052V164.153H39.17V162.399H40.1784V164.153H42.9401V165.035H40.1784V168.141C40.1784 168.954 40.6597 169.287 41.6108 169.287C42.0807 169.287 42.5505 169.206 42.9745 169.08V170.008C42.5734 170.123 42.0004 170.215 41.4504 170.215C40.2013 170.215 39.17 169.688 39.17 168.221ZM46.9281 163.11V161.918H48.0511V163.11H46.9281ZM44.7623 170.146V169.264H46.9739V165.035H44.7623V164.153H48.0053V169.264H50.2169V170.146H44.7623ZM51.7755 170.146V164.153H52.8069V164.966C53.1392 164.474 53.7466 164.038 54.5945 164.038C55.8665 164.038 56.5885 164.921 56.5885 166.193V170.146H55.5571V166.468C55.5571 165.631 55.2019 165.001 54.3081 165.001C53.5632 165.001 52.8069 165.574 52.8069 166.571V170.146H51.7755ZM59.3388 167.155C59.3388 168.519 60.1295 169.367 61.2984 169.367C62.2152 169.367 62.7652 168.84 62.96 168.095L63.8309 168.519C63.533 169.516 62.6162 170.272 61.2869 170.272C59.568 170.272 58.3304 169 58.3304 167.155C58.3304 165.299 59.568 164.038 61.2869 164.038C62.6048 164.038 63.5101 164.76 63.8195 165.757L62.96 166.204C62.7652 165.471 62.2152 164.932 61.2984 164.932C60.1295 164.932 59.3388 165.78 59.3388 167.155ZM66.673 168.221V165.035H64.9082V164.153H66.673V162.399H67.6814V164.153H70.4431V165.035H67.6814V168.141C67.6814 168.954 68.1627 169.287 69.1138 169.287C69.5837 169.287 70.0535 169.206 70.4775 169.08V170.008C70.0764 170.123 69.5034 170.215 68.9534 170.215C67.7043 170.215 66.673 169.688 66.673 168.221ZM74.4311 163.11V161.918H75.5541V163.11H74.4311ZM72.2653 170.146V169.264H74.4769V165.035H72.2653V164.153H75.5083V169.264H77.7199V170.146H72.2653ZM82.1548 170.146H81.135L78.6597 164.153H79.7484L81.6621 168.908L83.5529 164.153H84.6301L82.1548 170.146ZM86.1543 170.146V164.153H87.1856V164.966C87.518 164.474 88.1253 164.038 88.9733 164.038C90.2453 164.038 90.9672 164.921 90.9672 166.193V170.146H89.9359V166.468C89.9359 165.631 89.5806 165.001 88.6868 165.001C87.942 165.001 87.1856 165.574 87.1856 166.571V170.146H86.1543ZM95.5511 170.272C93.8322 170.272 92.6633 169 92.6633 167.155C92.6633 165.367 93.8322 164.038 95.5053 164.038C97.2242 164.038 98.1295 165.31 98.1295 166.972V167.316H93.6603C93.7291 168.576 94.4739 169.378 95.5511 169.378C96.3991 169.378 96.995 168.943 97.1898 168.232L98.0836 168.553C97.7055 169.619 96.7773 170.272 95.5511 170.272ZM95.5053 164.921C94.5771 164.921 93.9124 165.505 93.7176 166.525H97.0867C97.0637 165.677 96.5825 164.921 95.5053 164.921ZM99.4359 168.84L100.284 168.278C100.639 168.977 101.476 169.413 102.381 169.413C103.16 169.413 103.848 169.092 103.848 168.484C103.848 167.808 103.206 167.717 102.049 167.51C100.96 167.304 99.8141 167.075 99.8141 165.849C99.8141 164.783 100.845 164.038 102.255 164.038C103.47 164.038 104.398 164.588 104.787 165.299L103.997 165.86C103.664 165.253 103.034 164.886 102.163 164.886C101.373 164.886 100.834 165.23 100.834 165.769C100.834 166.33 101.499 166.445 102.427 166.628C103.573 166.869 104.891 167.063 104.891 168.37C104.891 169.516 103.745 170.272 102.324 170.272C101.109 170.272 99.9402 169.768 99.4359 168.84ZM106.312 168.84L107.16 168.278C107.515 168.977 108.351 169.413 109.257 169.413C110.036 169.413 110.724 169.092 110.724 168.484C110.724 167.808 110.082 167.717 108.924 167.51C107.836 167.304 106.69 167.075 106.69 165.849C106.69 164.783 107.721 164.038 109.131 164.038C110.345 164.038 111.274 164.588 111.663 165.299L110.873 165.86C110.54 165.253 109.91 164.886 109.039 164.886C108.248 164.886 107.71 165.23 107.71 165.769C107.71 166.33 108.374 166.445 109.303 166.628C110.449 166.869 111.766 167.063 111.766 168.37C111.766 169.516 110.62 170.272 109.199 170.272C107.985 170.272 106.816 169.768 106.312 168.84Z" fill="white"/>
<path d="M28.7325 128.838H19.7133V132.063H17.5109V126.662H31.4068V128.838C26.8185 133.951 25.4814 138.697 25.4814 145.487H22.9382C22.9382 138.172 24.957 133.06 28.7325 128.838ZM36.7032 136.73L34.4222 136.337L35.235 126.662H45.4865V128.865H37.1751L36.6508 134.554C37.4898 133.741 38.7483 133.086 40.4 133.086C44.0707 133.086 46.4828 135.813 46.4828 139.378C46.4828 142.944 43.7036 145.776 39.9281 145.776C36.3624 145.776 33.7929 143.783 33.1637 140.217L35.5758 139.719C35.9691 142.131 37.5946 143.678 39.9281 143.678C42.314 143.678 44.1231 141.843 44.1231 139.431C44.1231 137.045 42.5237 135.131 40.1116 135.131C38.5385 135.131 37.3587 135.839 36.7032 136.73ZM48.2659 130.936C48.2659 128.235 49.4457 126.374 51.517 126.374C53.5883 126.374 54.7943 128.235 54.7943 130.936C54.7943 133.636 53.5883 135.472 51.517 135.472C49.4457 135.472 48.2659 133.636 48.2659 130.936ZM63.0532 126.662L50.4945 145.487H48.2659L60.8246 126.662H63.0532ZM49.9439 130.936C49.9439 132.719 50.4683 133.846 51.517 133.846C52.5657 133.846 53.0639 132.719 53.0639 130.936C53.0639 129.153 52.5657 127.999 51.517 127.999C50.4683 127.999 49.9439 129.153 49.9439 130.936ZM63.0532 141.214C63.0532 143.914 61.8472 145.776 59.8021 145.776C57.7046 145.776 56.5248 143.914 56.5248 141.214C56.5248 138.513 57.7046 136.678 59.8021 136.678C61.8472 136.678 63.0532 138.513 63.0532 141.214ZM58.229 141.214C58.229 142.997 58.7271 144.15 59.8021 144.15C60.8246 144.15 61.349 142.997 61.349 141.214C61.349 139.431 60.8246 138.303 59.8021 138.303C58.7271 138.303 58.229 139.431 58.229 141.214Z" fill="white"/>
<rect x="19.0216" y="277.853" width="172.158" height="37.2194" fill="white"/>
<rect x="19.0216" y="277.853" width="172.158" height="37.2194" stroke="black" stroke-width="0.691721"/>
<circle cx="37.6312" cy="296.463" r="11.7245" fill="#E3AE17"/>
<path d="M57.2638 294.5V295.784H56.0021V294.422C56.0021 293.581 56.5555 293.039 57.4409 293.017V293.592C56.9539 293.636 56.6883 293.891 56.6883 294.378V294.5H57.2638ZM59.1896 294.5V295.784H57.9279V294.422C57.9279 293.581 58.4812 293.039 59.3666 293.017V293.592C58.8797 293.636 58.614 293.891 58.614 294.378V294.5H59.1896ZM61.5714 293.017V300.963H60.5089V293.017H61.5714ZM62.8874 294.3V293.017H64.1491V294.378C64.1491 295.219 63.5957 295.761 62.7103 295.784V295.208C63.1973 295.164 63.4629 294.909 63.4629 294.422V294.3H62.8874ZM66.4001 293.017V300.963H65.404V293.017H66.4001ZM69.0589 293.017V300.963H68.0628V293.017H69.0589ZM73.0561 300.963V295.175H74.0522V295.961C74.3842 295.485 74.9598 295.064 75.7788 295.064C77.0073 295.064 77.7045 295.916 77.7045 297.145V300.963H76.7084V297.41C76.7084 296.603 76.3653 295.994 75.5021 295.994C74.7827 295.994 74.0522 296.547 74.0522 297.51V300.963H73.0561ZM81.6164 301.085C80.0116 301.085 78.9048 299.856 78.9048 298.075C78.9048 296.348 80.0005 295.064 81.5721 295.064C83.188 295.064 84.0402 296.293 84.0402 297.897V298.229H79.8566C79.912 299.447 80.6092 300.222 81.6164 300.222C82.3911 300.222 82.9445 299.801 83.1215 299.115L83.9959 299.425C83.6417 300.454 82.7674 301.085 81.6164 301.085ZM81.561 295.916C80.7199 295.916 80.089 296.481 79.912 297.466H83.033C83.0109 296.647 82.5682 295.916 81.561 295.916ZM87.6401 300.963H86.6551L84.4859 295.175H85.5373L87.1642 299.746L88.769 295.175H89.8094L87.6401 300.963ZM92.9433 301.085C91.3385 301.085 90.2317 299.856 90.2317 298.075C90.2317 296.348 91.3274 295.064 92.899 295.064C94.5149 295.064 95.3671 296.293 95.3671 297.897V298.229H91.1836C91.2389 299.447 91.9361 300.222 92.9433 300.222C93.718 300.222 94.2714 299.801 94.4485 299.115L95.3228 299.425C94.9687 300.454 94.0943 301.085 92.9433 301.085ZM92.888 295.916C92.0468 295.916 91.416 296.481 91.2389 297.466H94.3599C94.3378 296.647 93.8951 295.916 92.888 295.916ZM99.6064 295.153V296.16C99.4404 296.127 99.3076 296.116 99.1194 296.116C98.2783 296.116 97.6032 296.78 97.6032 297.798V300.963H96.6071V295.175H97.6032V296.16C97.8577 295.573 98.4222 295.131 99.208 295.131C99.3629 295.131 99.5068 295.142 99.6064 295.153ZM103.193 299.58V296.027H102.296V295.175H103.193V293.481H104.178V295.175H105.495V296.027H104.178V299.425C104.178 300.033 104.477 300.144 104.986 300.144C105.218 300.144 105.384 300.133 105.617 300.078V300.93C105.362 300.985 105.074 301.018 104.742 301.018C103.757 301.018 103.193 300.686 103.193 299.58ZM111.747 298.075C111.747 299.867 110.64 301.085 109.058 301.085C107.475 301.085 106.368 299.867 106.368 298.075C106.368 296.282 107.475 295.064 109.058 295.064C110.64 295.064 111.747 296.282 111.747 298.075ZM107.375 298.075C107.375 299.392 108.04 300.233 109.058 300.233C110.076 300.233 110.74 299.392 110.74 298.075C110.74 296.746 110.076 295.905 109.058 295.905C108.04 295.905 107.375 296.746 107.375 298.075ZM117.607 295.175V300.963H116.611V300.166C116.279 300.653 115.714 301.085 114.895 301.085C113.656 301.085 112.959 300.233 112.959 299.004V295.175H113.955V298.794C113.955 299.613 114.309 300.166 115.161 300.166C115.88 300.166 116.611 299.624 116.611 298.661V295.175H117.607ZM119.859 298.075C119.859 299.392 120.567 300.211 121.596 300.211C122.393 300.211 122.869 299.701 123.035 298.982L123.92 299.392C123.644 300.354 122.803 301.085 121.596 301.085C119.98 301.085 118.863 299.856 118.863 298.075C118.863 296.282 119.98 295.064 121.596 295.064C122.803 295.064 123.622 295.761 123.898 296.724L123.035 297.156C122.869 296.448 122.393 295.927 121.596 295.927C120.567 295.927 119.859 296.746 119.859 298.075ZM125.011 300.963V293.017H126.007V295.961C126.339 295.485 126.914 295.064 127.733 295.064C128.962 295.064 129.659 295.916 129.659 297.145V300.963H128.663V297.41C128.663 296.603 128.32 295.994 127.457 295.994C126.737 295.994 126.007 296.547 126.007 297.51V300.963H125.011ZM133.637 300.963V293.017H134.699V300.033H138.661V300.963H133.637ZM144.55 298.075C144.55 299.867 143.443 301.085 141.86 301.085C140.278 301.085 139.171 299.867 139.171 298.075C139.171 296.282 140.278 295.064 141.86 295.064C143.443 295.064 144.55 296.282 144.55 298.075ZM140.178 298.075C140.178 299.392 140.842 300.233 141.86 300.233C142.879 300.233 143.543 299.392 143.543 298.075C143.543 296.746 142.879 295.905 141.86 295.905C140.842 295.905 140.178 296.746 140.178 298.075ZM148.464 295.175H149.305L150.501 299.491L151.707 295.175H152.703L150.943 300.963H150.069L148.863 296.669L147.656 300.963H146.782L145.022 295.175H146.052L147.269 299.48L148.464 295.175ZM156.606 298.075C156.606 299.392 157.315 300.211 158.344 300.211C159.141 300.211 159.617 299.701 159.783 298.982L160.668 299.392C160.391 300.354 159.55 301.085 158.344 301.085C156.728 301.085 155.61 299.856 155.61 298.075C155.61 296.282 156.728 295.064 158.344 295.064C159.55 295.064 160.369 295.761 160.646 296.724L159.783 297.156C159.617 296.448 159.141 295.927 158.344 295.927C157.315 295.927 156.606 296.746 156.606 298.075ZM163.273 301.063C162.222 301.063 161.37 300.443 161.37 299.403C161.37 298.252 162.266 297.776 163.561 297.51L164.967 297.222V296.979C164.967 296.315 164.601 295.938 163.827 295.938C163.096 295.938 162.665 296.282 162.487 296.923L161.547 296.68C161.823 295.739 162.676 295.064 163.86 295.064C165.155 295.064 165.952 295.695 165.952 296.935V299.757C165.952 300.133 166.184 300.255 166.571 300.166V300.963C165.686 301.074 165.177 300.864 165.055 300.31C164.701 300.764 164.059 301.063 163.273 301.063ZM164.967 298.993V297.997L163.838 298.241C162.952 298.418 162.355 298.661 162.355 299.358C162.355 299.923 162.764 300.255 163.395 300.255C164.247 300.255 164.967 299.735 164.967 298.993ZM170.648 295.153V296.16C170.482 296.127 170.349 296.116 170.161 296.116C169.32 296.116 168.645 296.78 168.645 297.798V300.963H167.649V295.175H168.645V296.16C168.9 295.573 169.464 295.131 170.25 295.131C170.405 295.131 170.549 295.142 170.648 295.153ZM174.534 301.085C173.726 301.085 173.084 300.698 172.741 300.122V300.963H171.745V293.017H172.741V296.016C173.084 295.452 173.726 295.064 174.534 295.064C176.139 295.064 177.058 296.425 177.058 298.075C177.058 299.713 176.139 301.085 174.534 301.085ZM172.719 297.875V298.285C172.719 299.613 173.538 300.211 174.357 300.211C175.442 300.211 176.051 299.314 176.051 298.075C176.051 296.824 175.442 295.938 174.357 295.938C173.538 295.938 172.719 296.525 172.719 297.875ZM178.35 298.606L178.095 293.017H179.346L179.091 298.606H178.35ZM178.084 300.963V299.657H179.346V300.963H178.084ZM182.308 294.3V293.017H183.57V294.378C183.57 295.219 183.017 295.761 182.131 295.784V295.208C182.618 295.164 182.884 294.909 182.884 294.422V294.3H182.308ZM180.383 294.3V293.017H181.644V294.378C181.644 295.219 181.091 295.761 180.206 295.784V295.208C180.693 295.164 180.958 294.909 180.958 294.422V294.3H180.383Z" fill="#040404"/>
<rect x="19.0216" y="187.569" width="157.696" height="37.2194" fill="white"/>
<rect x="19.0216" y="187.569" width="157.696" height="37.2194" stroke="black" stroke-width="0.691721"/>
<circle cx="37.6312" cy="206.179" r="11.7245" fill="#C2AC0C"/>
<path d="M57.2638 204.215V205.499H56.0021V204.138C56.0021 203.297 56.5555 202.754 57.4409 202.732V203.308C56.9539 203.352 56.6883 203.607 56.6883 204.094V204.215H57.2638ZM59.1896 204.215V205.499H57.9279V204.138C57.9279 203.297 58.4812 202.754 59.3666 202.732V203.308C58.8797 203.352 58.614 203.607 58.614 204.094V204.215H59.1896ZM63.326 206.373L65.5948 202.732H66.7237L63.8461 207.336V210.679H62.7837V207.336L59.9061 202.732H61.0571L63.326 206.373ZM71.3804 204.89V210.679H70.3844V209.882C70.0523 210.369 69.4879 210.8 68.6689 210.8C67.4293 210.8 66.7321 209.948 66.7321 208.72V204.89H67.7282V208.509C67.7282 209.328 68.0823 209.882 68.9345 209.882C69.6539 209.882 70.3844 209.34 70.3844 208.377V204.89H71.3804ZM74.0306 207.215V210.679H73.0345V204.89H74.0306V205.676C74.3405 205.2 74.8939 204.78 75.7018 204.78C76.4765 204.78 77.0188 205.167 77.3066 205.765C77.6276 205.289 78.2473 204.78 79.1549 204.78C80.3502 204.78 81.0696 205.632 81.0696 206.86V210.679H80.0735V207.126C80.0735 206.318 79.7415 205.709 78.9225 205.709C78.2584 205.709 77.5501 206.274 77.5501 207.215V210.679H76.554V207.126C76.554 206.318 76.222 205.709 75.403 205.709C74.7389 205.709 74.0306 206.274 74.0306 207.215ZM82.443 210.679V209.373H83.7047V210.745C83.7047 211.608 83.1513 212.129 82.2659 212.151V211.575C82.7639 211.553 83.0185 211.298 83.0185 210.767V210.679H82.443ZM92.842 202.732H93.9044V210.679H92.842V207.037H88.581V210.679H87.5185V202.732H88.581V206.108H92.842V202.732ZM97.0626 210.778C96.0112 210.778 95.159 210.159 95.159 209.118C95.159 207.967 96.0554 207.491 97.3503 207.226L98.7559 206.938V206.694C98.7559 206.03 98.3907 205.654 97.616 205.654C96.8855 205.654 96.4539 205.997 96.2768 206.639L95.336 206.396C95.6127 205.455 96.4649 204.78 97.6492 204.78C98.9441 204.78 99.7409 205.411 99.7409 206.65V209.472C99.7409 209.849 99.9733 209.97 100.361 209.882V210.679C99.4753 210.789 98.9662 210.579 98.8445 210.026C98.4903 210.479 97.8484 210.778 97.0626 210.778ZM98.7559 208.709V207.713L97.627 207.956C96.7416 208.133 96.144 208.377 96.144 209.074C96.144 209.638 96.5535 209.97 97.1843 209.97C98.0365 209.97 98.7559 209.45 98.7559 208.709ZM105.622 209.827V210.679H101.062V209.926L104.404 205.743H101.106V204.89H105.589V205.654L102.313 209.827H105.622ZM109.065 211.31C108.733 212.184 108.279 212.737 107.272 212.737C107.029 212.737 106.907 212.726 106.73 212.693V211.83C106.918 211.874 107.04 211.885 107.206 211.885C107.637 211.885 107.87 211.73 108.102 211.155L108.379 210.468L106.232 204.89H107.283L108.91 209.317L110.515 204.89H111.555L109.065 211.31ZM116.312 210.778C115.26 210.778 114.408 210.159 114.408 209.118C114.408 207.967 115.305 207.491 116.6 207.226L118.005 206.938V206.694C118.005 206.03 117.64 205.654 116.865 205.654C116.135 205.654 115.703 205.997 115.526 206.639L114.585 206.396C114.862 205.455 115.714 204.78 116.898 204.78C118.193 204.78 118.99 205.411 118.99 206.65V209.472C118.99 209.849 119.223 209.97 119.61 209.882V210.679C118.725 210.789 118.215 210.579 118.094 210.026C117.74 210.479 117.098 210.778 116.312 210.778ZM118.005 208.709V207.713L116.876 207.956C115.991 208.133 115.393 208.377 115.393 209.074C115.393 209.638 115.803 209.97 116.434 209.97C117.286 209.97 118.005 209.45 118.005 208.709ZM121.684 202.732V210.679H120.688V202.732H121.684ZM124.343 202.732V210.679H123.346V202.732H124.343ZM128.495 209.295V205.743H127.598V204.89H128.495V203.197H129.48V204.89H130.797V205.743H129.48V209.14C129.48 209.749 129.779 209.86 130.288 209.86C130.52 209.86 130.686 209.849 130.919 209.793V210.646C130.664 210.701 130.376 210.734 130.044 210.734C129.059 210.734 128.495 210.402 128.495 209.295ZM132.101 210.679V202.732H133.097V205.676C133.429 205.2 134.005 204.78 134.824 204.78C136.052 204.78 136.749 205.632 136.749 206.86V210.679H135.753V207.126C135.753 206.318 135.41 205.709 134.547 205.709C133.828 205.709 133.097 206.263 133.097 207.226V210.679H132.101ZM140.661 210.8C139.056 210.8 137.95 209.572 137.95 207.79C137.95 206.064 139.045 204.78 140.617 204.78C142.233 204.78 143.085 206.008 143.085 207.613V207.945H138.901C138.957 209.162 139.654 209.937 140.661 209.937C141.436 209.937 141.989 209.517 142.166 208.83L143.041 209.14C142.687 210.17 141.812 210.8 140.661 210.8ZM140.606 205.632C139.765 205.632 139.134 206.196 138.957 207.181H142.078C142.056 206.362 141.613 205.632 140.606 205.632ZM149.415 204.89H150.257L151.452 209.207L152.658 204.89H153.654L151.895 210.679H151.02L149.814 206.385L148.607 210.679H147.733L145.973 204.89H147.003L148.22 209.196L149.415 204.89ZM155.956 210.778C154.905 210.778 154.053 210.159 154.053 209.118C154.053 207.967 154.949 207.491 156.244 207.226L157.649 206.938V206.694C157.649 206.03 157.284 205.654 156.51 205.654C155.779 205.654 155.347 205.997 155.17 206.639L154.23 206.396C154.506 205.455 155.358 204.78 156.543 204.78C157.838 204.78 158.634 205.411 158.634 206.65V209.472C158.634 209.849 158.867 209.97 159.254 209.882V210.679C158.369 210.789 157.86 210.579 157.738 210.026C157.384 210.479 156.742 210.778 155.956 210.778ZM157.649 208.709V207.713L156.521 207.956C155.635 208.133 155.038 208.377 155.038 209.074C155.038 209.638 155.447 209.97 156.078 209.97C156.93 209.97 157.649 209.45 157.649 208.709ZM162.414 211.31C162.082 212.184 161.628 212.737 160.621 212.737C160.378 212.737 160.256 212.726 160.079 212.693V211.83C160.267 211.874 160.389 211.885 160.555 211.885C160.986 211.885 161.219 211.73 161.451 211.155L161.728 210.468L159.581 204.89H160.632L162.259 209.317L163.864 204.89H164.904L162.414 211.31ZM167.555 204.016V202.732H168.817V204.094C168.817 204.935 168.264 205.477 167.378 205.499V204.924C167.865 204.879 168.131 204.625 168.131 204.138V204.016H167.555ZM165.63 204.016V202.732H166.891V204.094C166.891 204.935 166.338 205.477 165.453 205.499V204.924C165.939 204.879 166.205 204.625 166.205 204.138V204.016H165.63Z" fill="#040404"/>
<rect x="19.0216" y="232.711" width="240.445" height="37.2194" fill="white"/>
<rect x="19.0216" y="232.711" width="240.445" height="37.2194" stroke="black" stroke-width="0.691721"/>
<circle cx="37.6312" cy="251.321" r="11.7245" fill="#E2E218"/>
<path d="M57.2638 249.357V250.641H56.0021V249.28C56.0021 248.439 56.5555 247.896 57.4409 247.874V248.45C56.9539 248.494 56.6883 248.749 56.6883 249.236V249.357H57.2638ZM59.1896 249.357V250.641H57.9279V249.28C57.9279 248.439 58.4812 247.896 59.3666 247.874V248.45C58.8797 248.494 58.614 248.749 58.614 249.236V249.357H59.1896ZM61.5714 252.489V255.821H60.5089V247.874H63.5414C65.2237 247.874 66.2973 248.66 66.2973 250.176C66.2973 251.67 65.2237 252.489 63.5414 252.489H61.5714ZM61.5714 251.571H63.4861C64.615 251.571 65.2458 251.073 65.2458 250.176C65.2458 249.28 64.615 248.793 63.4861 248.793H61.5714V251.571ZM69.4032 255.943C67.7984 255.943 66.6916 254.714 66.6916 252.932C66.6916 251.206 67.7873 249.922 69.3589 249.922C70.9748 249.922 71.827 251.15 71.827 252.755V253.087H67.6434C67.6988 254.305 68.396 255.079 69.4032 255.079C70.1779 255.079 70.7313 254.659 70.9084 253.973L71.7827 254.282C71.4285 255.312 70.5542 255.943 69.4032 255.943ZM69.3478 250.774C68.5067 250.774 67.8758 251.338 67.6988 252.323H70.8198C70.7977 251.504 70.355 250.774 69.3478 250.774ZM76.0663 250.01V251.017C75.9002 250.984 75.7674 250.973 75.5793 250.973C74.7382 250.973 74.063 251.637 74.063 252.655V255.821H73.067V250.032H74.063V251.017C74.3176 250.431 74.882 249.988 75.6678 249.988C75.8228 249.988 75.9666 249.999 76.0663 250.01ZM79.7515 247.775V248.66C79.5855 248.638 79.4859 248.638 79.3199 248.638C78.7333 248.638 78.4123 248.893 78.4123 249.634V250.032H79.6961V250.885H78.4123V255.821H77.4162V250.885H76.5419V250.032H77.4162V249.568C77.4162 248.439 78.036 247.753 79.2202 247.753C79.4195 247.753 79.5301 247.764 79.7515 247.775ZM82.9025 255.943C81.2977 255.943 80.191 254.714 80.191 252.932C80.191 251.206 81.2867 249.922 82.8583 249.922C84.4741 249.922 85.3263 251.15 85.3263 252.755V253.087H81.1428C81.1981 254.305 81.8954 255.079 82.9025 255.079C83.6773 255.079 84.2306 254.659 84.4077 253.973L85.2821 254.282C84.9279 255.312 84.0536 255.943 82.9025 255.943ZM82.8472 250.774C82.0061 250.774 81.3752 251.338 81.1981 252.323H84.3192C84.297 251.504 83.8543 250.774 82.8472 250.774ZM87.164 252.932C87.164 254.249 87.8723 255.068 88.9016 255.068C89.6984 255.068 90.1743 254.559 90.3403 253.84L91.2258 254.249C90.9491 255.212 90.1079 255.943 88.9016 255.943C87.2857 255.943 86.1679 254.714 86.1679 252.932C86.1679 251.139 87.2857 249.922 88.9016 249.922C90.1079 249.922 90.9269 250.619 91.2036 251.582L90.3403 252.014C90.1743 251.305 89.6984 250.785 88.9016 250.785C87.8723 250.785 87.164 251.604 87.164 252.932ZM92.4712 254.437V250.885H91.5747V250.032H92.4712V248.339H93.4562V250.032H94.7732V250.885H93.4562V254.282C93.4562 254.891 93.755 255.002 94.2641 255.002C94.4966 255.002 94.6626 254.991 94.895 254.935V255.788C94.6404 255.843 94.3527 255.876 94.0206 255.876C93.0356 255.876 92.4712 255.544 92.4712 254.437ZM101.201 255.943C100.393 255.943 99.7512 255.555 99.4081 254.98V255.821H98.412V247.874H99.4081V250.874C99.7512 250.309 100.393 249.922 101.201 249.922C102.806 249.922 103.724 251.283 103.724 252.932C103.724 254.57 102.806 255.943 101.201 255.943ZM99.386 252.733V253.142C99.386 254.471 100.205 255.068 101.024 255.068C102.109 255.068 102.717 254.172 102.717 252.932C102.717 251.682 102.109 250.796 101.024 250.796C100.205 250.796 99.386 251.383 99.386 252.733ZM107.297 255.943C105.692 255.943 104.585 254.714 104.585 252.932C104.585 251.206 105.681 249.922 107.252 249.922C108.868 249.922 109.72 251.15 109.72 252.755V253.087H105.537C105.592 254.305 106.289 255.079 107.297 255.079C108.071 255.079 108.625 254.659 108.802 253.973L109.676 254.282C109.322 255.312 108.448 255.943 107.297 255.943ZM107.241 250.774C106.4 250.774 105.769 251.338 105.592 252.323H108.713C108.691 251.504 108.248 250.774 107.241 250.774ZM113.273 255.943C111.669 255.943 110.562 254.714 110.562 252.932C110.562 251.206 111.658 249.922 113.229 249.922C114.845 249.922 115.697 251.15 115.697 252.755V253.087H111.514C111.569 254.305 112.266 255.079 113.273 255.079C114.048 255.079 114.602 254.659 114.779 253.973L115.653 254.282C115.299 255.312 114.424 255.943 113.273 255.943ZM113.218 250.774C112.377 250.774 111.746 251.338 111.569 252.323H114.69C114.668 251.504 114.225 250.774 113.218 250.774ZM119.936 250.01V251.017C119.77 250.984 119.638 250.973 119.45 250.973C118.608 250.973 117.933 251.637 117.933 252.655V255.821H116.937V250.032H117.933V251.017C118.188 250.431 118.752 249.988 119.538 249.988C119.693 249.988 119.837 249.999 119.936 250.01ZM125.891 247.775V248.66C125.725 248.638 125.626 248.638 125.46 248.638C124.873 248.638 124.552 248.893 124.552 249.634V250.032H125.836V250.885H124.552V255.821H123.556V250.885H122.682V250.032H123.556V249.568C123.556 248.439 124.176 247.753 125.36 247.753C125.559 247.753 125.67 247.764 125.891 247.775ZM131.71 252.932C131.71 254.725 130.603 255.943 129.02 255.943C127.438 255.943 126.331 254.725 126.331 252.932C126.331 251.139 127.438 249.922 129.02 249.922C130.603 249.922 131.71 251.139 131.71 252.932ZM127.338 252.932C127.338 254.249 128.002 255.09 129.02 255.09C130.039 255.09 130.703 254.249 130.703 252.932C130.703 251.604 130.039 250.763 129.02 250.763C128.002 250.763 127.338 251.604 127.338 252.932ZM135.976 250.01V251.017C135.81 250.984 135.677 250.973 135.489 250.973C134.648 250.973 133.973 251.637 133.973 252.655V255.821H132.976V250.032H133.973V251.017C134.227 250.431 134.792 249.988 135.577 249.988C135.732 249.988 135.876 249.999 135.976 250.01ZM140.857 255.92C139.806 255.92 138.954 255.301 138.954 254.26C138.954 253.109 139.85 252.633 141.145 252.368L142.55 252.08V251.836C142.55 251.172 142.185 250.796 141.411 250.796C140.68 250.796 140.248 251.139 140.071 251.781L139.131 251.538C139.407 250.597 140.26 249.922 141.444 249.922C142.739 249.922 143.536 250.553 143.536 251.792V254.614C143.536 254.991 143.768 255.112 144.155 255.024V255.821C143.27 255.931 142.761 255.721 142.639 255.168C142.285 255.622 141.643 255.92 140.857 255.92ZM142.55 253.851V252.855L141.422 253.098C140.536 253.275 139.939 253.519 139.939 254.216C139.939 254.78 140.348 255.112 140.979 255.112C141.831 255.112 142.55 254.592 142.55 253.851ZM147.756 247.775V248.66C147.59 248.638 147.491 248.638 147.325 248.638C146.738 248.638 146.417 248.893 146.417 249.634V250.032H147.701V250.885H146.417V255.821H145.421V250.885H144.547V250.032H145.421V249.568C145.421 248.439 146.041 247.753 147.225 247.753C147.424 247.753 147.535 247.764 147.756 247.775ZM148.955 254.437V250.885H148.058V250.032H148.955V248.339H149.94V250.032H151.257V250.885H149.94V254.282C149.94 254.891 150.238 255.002 150.747 255.002C150.98 255.002 151.146 254.991 151.378 254.935V255.788C151.124 255.843 150.836 255.876 150.504 255.876C149.519 255.876 148.955 255.544 148.955 254.437ZM154.842 255.943C153.237 255.943 152.13 254.714 152.13 252.932C152.13 251.206 153.226 249.922 154.797 249.922C156.413 249.922 157.265 251.15 157.265 252.755V253.087H153.082C153.137 254.305 153.834 255.079 154.842 255.079C155.616 255.079 156.17 254.659 156.347 253.973L157.221 254.282C156.867 255.312 155.993 255.943 154.842 255.943ZM154.786 250.774C153.945 250.774 153.314 251.338 153.137 252.323H156.258C156.236 251.504 155.793 250.774 154.786 250.774ZM161.505 250.01V251.017C161.339 250.984 161.206 250.973 161.018 250.973C160.176 250.973 159.501 251.637 159.501 252.655V255.821H158.505V250.032H159.501V251.017C159.756 250.431 160.32 249.988 161.106 249.988C161.261 249.988 161.405 249.999 161.505 250.01ZM165.932 252.357V255.821H164.936V250.032H165.932V250.818C166.242 250.342 166.795 249.922 167.603 249.922C168.378 249.922 168.92 250.309 169.208 250.907C169.529 250.431 170.149 249.922 171.056 249.922C172.252 249.922 172.971 250.774 172.971 252.003V255.821H171.975V252.268C171.975 251.46 171.643 250.851 170.824 250.851C170.16 250.851 169.452 251.416 169.452 252.357V255.821H168.456V252.268C168.456 251.46 168.124 250.851 167.305 250.851C166.641 250.851 165.932 251.416 165.932 252.357ZM179.557 252.932C179.557 254.725 178.451 255.943 176.868 255.943C175.285 255.943 174.179 254.725 174.179 252.932C174.179 251.139 175.285 249.922 176.868 249.922C178.451 249.922 179.557 251.139 179.557 252.932ZM175.186 252.932C175.186 254.249 175.85 255.09 176.868 255.09C177.886 255.09 178.55 254.249 178.55 252.932C178.55 251.604 177.886 250.763 176.868 250.763C175.85 250.763 175.186 251.604 175.186 252.932ZM183.472 250.032H184.313L185.508 254.349L186.715 250.032H187.711L185.951 255.821H185.077L183.87 251.527L182.664 255.821H181.79L180.03 250.032H181.059L182.277 254.338L183.472 250.032ZM188.637 249.025V247.874H189.722V249.025H188.637ZM189.678 250.032V255.821H188.682V250.032H189.678ZM191.34 255.821V250.032H192.337V250.818C192.669 250.342 193.244 249.922 194.063 249.922C195.292 249.922 195.989 250.774 195.989 252.003V255.821H194.993V252.268C194.993 251.46 194.65 250.851 193.786 250.851C193.067 250.851 192.337 251.405 192.337 252.368V255.821H191.34ZM202.49 255.301C202.49 256.994 201.373 257.935 199.801 257.935C198.528 257.935 197.599 257.348 197.278 256.286L198.207 255.931C198.395 256.673 198.993 257.105 199.801 257.105C200.819 257.105 201.494 256.584 201.494 255.378V254.725C201.184 255.29 200.531 255.688 199.724 255.688C198.141 255.688 197.211 254.382 197.211 252.799C197.211 251.228 198.141 249.922 199.724 249.922C200.52 249.922 201.184 250.32 201.494 250.885V250.032H202.49V255.301ZM201.505 252.711C201.505 251.416 200.731 250.796 199.901 250.796C198.849 250.796 198.207 251.582 198.207 252.799C198.207 254.017 198.849 254.814 199.901 254.814C200.731 254.814 201.505 254.194 201.505 252.921V252.711ZM206.638 254.437V250.885H205.741V250.032H206.638V248.339H207.623V250.032H208.94V250.885H207.623V254.282C207.623 254.891 207.921 255.002 208.431 255.002C208.663 255.002 208.829 254.991 209.061 254.935V255.788C208.807 255.843 208.519 255.876 208.187 255.876C207.202 255.876 206.638 255.544 206.638 254.437ZM210.244 255.821V247.874H211.24V250.818C211.572 250.342 212.147 249.922 212.966 249.922C214.195 249.922 214.892 250.774 214.892 252.003V255.821H213.896V252.268C213.896 251.46 213.553 250.851 212.69 250.851C211.97 250.851 211.24 251.405 211.24 252.368V255.821H210.244ZM218.804 255.943C217.199 255.943 216.093 254.714 216.093 252.932C216.093 251.206 217.188 249.922 218.76 249.922C220.376 249.922 221.228 251.15 221.228 252.755V253.087H217.044C217.1 254.305 217.797 255.079 218.804 255.079C219.579 255.079 220.132 254.659 220.309 253.973L221.184 254.282C220.829 255.312 219.955 255.943 218.804 255.943ZM218.749 250.774C217.908 250.774 217.277 251.338 217.1 252.323H220.221C220.199 251.504 219.756 250.774 218.749 250.774ZM225.799 247.874V255.821H224.802V247.874H225.799ZM228.911 255.92C227.86 255.92 227.007 255.301 227.007 254.26C227.007 253.109 227.904 252.633 229.199 252.368L230.604 252.08V251.836C230.604 251.172 230.239 250.796 229.464 250.796C228.734 250.796 228.302 251.139 228.125 251.781L227.185 251.538C227.461 250.597 228.313 249.922 229.498 249.922C230.793 249.922 231.589 250.553 231.589 251.792V254.614C231.589 254.991 231.822 255.112 232.209 255.024V255.821C231.324 255.931 230.815 255.721 230.693 255.168C230.339 255.622 229.697 255.92 228.911 255.92ZM230.604 253.851V252.855L229.476 253.098C228.59 253.275 227.992 253.519 227.992 254.216C227.992 254.78 228.402 255.112 229.033 255.112C229.885 255.112 230.604 254.592 230.604 253.851ZM235.978 250.032H236.819L238.014 254.349L239.221 250.032H240.217L238.457 255.821H237.583L236.376 251.527L235.17 255.821H234.296L232.536 250.032H233.565L234.782 254.338L235.978 250.032ZM241.188 255.821V250.032H242.184V250.818C242.516 250.342 243.091 249.922 243.91 249.922C245.139 249.922 245.836 250.774 245.836 252.003V255.821H244.84V252.268C244.84 251.46 244.497 250.851 243.633 250.851C242.914 250.851 242.184 251.405 242.184 252.368V255.821H241.188ZM246.793 254.592L247.567 254.028C247.877 254.703 248.586 255.112 249.338 255.112C250.013 255.112 250.611 254.825 250.611 254.194C250.611 253.563 250.058 253.474 249.106 253.275C248.154 253.065 247.158 252.855 247.158 251.67C247.158 250.641 248.054 249.922 249.283 249.922C250.323 249.922 251.176 250.431 251.519 251.117L250.81 251.682C250.511 251.106 249.969 250.741 249.239 250.741C248.575 250.741 248.132 251.073 248.132 251.593C248.132 252.135 248.641 252.235 249.449 252.412C250.445 252.644 251.585 252.844 251.585 254.105C251.585 255.212 250.578 255.943 249.338 255.943C248.287 255.943 247.235 255.489 246.793 254.592Z" fill="#040404"/>
<path d="M285.134 166.697V170.146H284.033V161.918H287.013C288.755 161.918 289.855 162.732 289.855 164.302C289.855 165.849 288.755 166.697 287.013 166.697H285.134ZM285.134 165.746H286.944C288.124 165.746 288.778 165.23 288.778 164.302C288.778 163.373 288.124 162.869 286.944 162.869H285.134V165.746ZM295.951 164.153V170.146H294.92V169.321C294.576 169.825 293.992 170.272 293.144 170.272C291.872 170.272 291.138 169.39 291.138 168.118V164.153H292.17V167.9C292.17 168.748 292.536 169.321 293.419 169.321C294.164 169.321 294.92 168.759 294.92 167.762V164.153H295.951ZM297.705 170.146V169.264H299.389V165.035H297.705V164.153H300.409V165.253C300.776 164.554 301.567 164.038 302.575 164.038C302.976 164.038 303.297 164.095 303.503 164.187V165.207C303.228 165.115 302.907 165.047 302.472 165.047C301.406 165.047 300.409 165.769 300.409 166.869V169.264H302.678V170.146H297.705ZM305.646 167.155C305.646 168.519 306.437 169.367 307.606 169.367C308.522 169.367 309.073 168.84 309.267 168.095L310.138 168.519C309.84 169.516 308.924 170.272 307.594 170.272C305.875 170.272 304.638 169 304.638 167.155C304.638 165.299 305.875 164.038 307.594 164.038C308.912 164.038 309.817 164.76 310.127 165.757L309.267 166.204C309.073 165.471 308.522 164.932 307.606 164.932C306.437 164.932 305.646 165.78 305.646 167.155ZM311.834 170.146V161.918H312.866V164.966C313.198 164.474 313.805 164.038 314.653 164.038C315.925 164.038 316.647 164.921 316.647 166.193V170.146H315.616V166.468C315.616 165.631 315.261 165.001 314.367 165.001C313.622 165.001 312.866 165.574 312.866 166.571V170.146H311.834ZM320.326 170.249C319.214 170.249 318.309 169.607 318.309 168.53C318.309 167.338 319.283 166.834 320.612 166.582L322.217 166.273V166.021C322.217 165.333 321.793 164.932 320.945 164.932C320.177 164.932 319.673 165.31 319.466 165.975L318.504 165.723C318.813 164.737 319.707 164.038 320.991 164.038C322.377 164.038 323.225 164.691 323.225 165.975V168.863C323.225 169.321 323.535 169.413 323.959 169.321V170.146C322.996 170.261 322.423 170.077 322.274 169.447C321.884 169.917 321.185 170.249 320.326 170.249ZM322.217 168.072V167.075L320.876 167.327C319.994 167.499 319.352 167.762 319.352 168.484C319.352 169.069 319.787 169.413 320.475 169.413C321.392 169.413 322.217 168.84 322.217 168.072ZM325.116 168.84L325.964 168.278C326.319 168.977 327.156 169.413 328.061 169.413C328.84 169.413 329.528 169.092 329.528 168.484C329.528 167.808 328.886 167.717 327.729 167.51C326.64 167.304 325.494 167.075 325.494 165.849C325.494 164.783 326.526 164.038 327.935 164.038C329.15 164.038 330.078 164.588 330.468 165.299L329.677 165.86C329.345 165.253 328.714 164.886 327.843 164.886C327.053 164.886 326.514 165.23 326.514 165.769C326.514 166.33 327.179 166.445 328.107 166.628C329.253 166.869 330.571 167.063 330.571 168.37C330.571 169.516 329.425 170.272 328.004 170.272C326.789 170.272 325.62 169.768 325.116 168.84ZM334.983 170.272C333.264 170.272 332.095 169 332.095 167.155C332.095 165.367 333.264 164.038 334.937 164.038C336.656 164.038 337.561 165.31 337.561 166.972V167.316H333.092C333.161 168.576 333.905 169.378 334.983 169.378C335.831 169.378 336.427 168.943 336.621 168.232L337.515 168.553C337.137 169.619 336.209 170.272 334.983 170.272ZM334.937 164.921C334.009 164.921 333.344 165.505 333.149 166.525H336.518C336.495 165.677 336.014 164.921 334.937 164.921ZM351.462 169.183V170.146H345.709V169.183H348.035V162.881H345.709V161.918H351.462V162.881H349.135V169.183H351.462ZM353.089 170.146V164.153H354.12V164.966C354.453 164.474 355.06 164.038 355.908 164.038C357.18 164.038 357.902 164.921 357.902 166.193V170.146H356.87V166.468C356.87 165.631 356.515 165.001 355.621 165.001C354.877 165.001 354.12 165.574 354.12 166.571V170.146H353.089ZM361.111 168.221V165.035H359.346V164.153H361.111V162.399H362.119V164.153H364.881V165.035H362.119V168.141C362.119 168.954 362.6 169.287 363.551 169.287C364.021 169.287 364.491 169.206 364.915 169.08V170.008C364.514 170.123 363.941 170.215 363.391 170.215C362.142 170.215 361.111 169.688 361.111 168.221ZM369.361 170.272C367.643 170.272 366.474 169 366.474 167.155C366.474 165.367 367.643 164.038 369.316 164.038C371.034 164.038 371.94 165.31 371.94 166.972V167.316H367.471C367.539 168.576 368.284 169.378 369.361 169.378C370.209 169.378 370.805 168.943 371 168.232L371.894 168.553C371.516 169.619 370.588 170.272 369.361 170.272ZM369.316 164.921C368.387 164.921 367.723 165.505 367.528 166.525H370.897C370.874 165.677 370.393 164.921 369.316 164.921ZM373.716 170.146V164.153H374.747V164.966C375.08 164.474 375.687 164.038 376.535 164.038C377.807 164.038 378.529 164.921 378.529 166.193V170.146H377.498V166.468C377.498 165.631 377.142 165.001 376.249 165.001C375.504 165.001 374.747 165.574 374.747 166.571V170.146H373.716ZM381.738 168.221V165.035H379.973V164.153H381.738V162.399H382.746V164.153H385.508V165.035H382.746V168.141C382.746 168.954 383.228 169.287 384.179 169.287C384.648 169.287 385.118 169.206 385.542 169.08V170.008C385.141 170.123 384.568 170.215 384.018 170.215C382.769 170.215 381.738 169.688 381.738 168.221Z" fill="white"/>
<path d="M291.131 126.374C294.566 126.374 297.109 128.393 297.109 131.408C297.109 133.296 296.034 134.764 294.173 135.498C296.427 136.18 298.105 137.91 298.105 140.296C298.105 143.6 295.169 145.749 291.131 145.749C287.094 145.749 284.157 143.6 284.157 140.296C284.157 137.91 285.835 136.18 288.09 135.498C286.228 134.764 285.153 133.296 285.153 131.408C285.153 128.393 287.697 126.374 291.131 126.374ZM291.131 134.502C293.36 134.502 294.854 133.296 294.854 131.434C294.854 129.599 293.36 128.367 291.131 128.367C288.929 128.367 287.408 129.599 287.408 131.434C287.408 133.296 288.929 134.502 291.131 134.502ZM291.131 136.573C288.483 136.573 286.622 138.041 286.622 140.139C286.622 142.289 288.483 143.757 291.131 143.757C293.779 143.757 295.641 142.289 295.641 140.139C295.641 138.041 293.779 136.573 291.131 136.573ZM310.769 145.487H308.488V140.558H299.574V138.618L307.649 126.662H310.822V138.487H314.283V140.558H310.769V145.487ZM302.117 138.487H308.462V129.048L302.117 138.487ZM315.2 130.936C315.2 128.235 316.38 126.374 318.452 126.374C320.523 126.374 321.729 128.235 321.729 130.936C321.729 133.636 320.523 135.472 318.452 135.472C316.38 135.472 315.2 133.636 315.2 130.936ZM329.988 126.662L317.429 145.487H315.2L327.759 126.662H329.988ZM316.878 130.936C316.878 132.719 317.403 133.846 318.452 133.846C319.5 133.846 319.998 132.719 319.998 130.936C319.998 129.153 319.5 127.999 318.452 127.999C317.403 127.999 316.878 129.153 316.878 130.936ZM329.988 141.214C329.988 143.914 328.782 145.776 326.737 145.776C324.639 145.776 323.459 143.914 323.459 141.214C323.459 138.513 324.639 136.678 326.737 136.678C328.782 136.678 329.988 138.513 329.988 141.214ZM325.164 141.214C325.164 142.997 325.662 144.15 326.737 144.15C327.759 144.15 328.284 142.997 328.284 141.214C328.284 139.431 327.759 138.303 326.737 138.303C325.662 138.303 325.164 139.431 325.164 141.214Z" fill="white"/>
<g style="mix-blend-mode:multiply">
<path d="M392.957 0.488281C400.26 0.488281 406.18 6.4084 406.18 13.7112L406.18 177.575C406.18 184.878 400.26 190.798 392.957 190.798L280.562 190.798C273.259 190.798 267.339 184.878 267.339 177.575L267.339 13.7112C267.339 6.40841 273.259 0.488282 280.562 0.488282L392.957 0.488281Z" fill="#FE5570"/>
</g>
<g style="mix-blend-mode:multiply">
<rect x="139.244" y="10.8639" width="180.991" height="138.841" rx="13.223" transform="rotate(90 139.244 10.8639)" fill="#0092C7"/>
</g>
<g style="mix-blend-mode:multiply">
<rect x="272.616" y="26.1765" width="164.622" height="138.841" rx="13.223" transform="rotate(90 272.616 26.1765)" fill="#EF94E1"/>
</g>
<path d="M167.02 130.726L164.975 131.591C164.451 129.782 163.192 128.471 161.016 128.471C158.106 128.471 155.877 131.329 155.877 135.734V135.996C156.742 134.344 158.578 133.033 160.964 133.033C164.451 133.033 167.099 135.76 167.099 139.3C167.099 142.97 164.267 145.776 160.57 145.776C155.746 145.776 153.57 141.476 153.57 136.258C153.57 130.28 156.716 126.374 161.095 126.374C164.32 126.374 166.234 128.131 167.02 130.726ZM164.792 139.431C164.792 136.992 162.982 135.105 160.597 135.105C158.211 135.105 156.349 136.992 156.349 139.431C156.349 141.869 158.184 143.704 160.57 143.704C162.93 143.704 164.792 141.869 164.792 139.431ZM180.602 128.838H171.582V132.063H169.38V126.662H183.276V128.838C178.688 133.951 177.351 138.697 177.351 145.487H174.807C174.807 138.172 176.826 133.06 180.602 128.838ZM184.404 130.936C184.404 128.235 185.583 126.374 187.655 126.374C189.726 126.374 190.932 128.235 190.932 130.936C190.932 133.636 189.726 135.472 187.655 135.472C185.583 135.472 184.404 133.636 184.404 130.936ZM199.191 126.662L186.632 145.487H184.404L196.962 126.662H199.191ZM186.082 130.936C186.082 132.719 186.606 133.846 187.655 133.846C188.703 133.846 189.202 132.719 189.202 130.936C189.202 129.153 188.703 127.999 187.655 127.999C186.606 127.999 186.082 129.153 186.082 130.936ZM199.191 141.214C199.191 143.914 197.985 145.776 195.94 145.776C193.842 145.776 192.662 143.914 192.662 141.214C192.662 138.513 193.842 136.678 195.94 136.678C197.985 136.678 199.191 138.513 199.191 141.214ZM194.367 141.214C194.367 142.997 194.865 144.15 195.94 144.15C196.962 144.15 197.487 142.997 197.487 141.214C197.487 139.431 196.962 138.303 195.94 138.303C194.865 138.303 194.367 139.431 194.367 141.214Z" fill="white"/>
<path d="M155.265 161.918H156.537L159.115 170.146H158.004L157.339 167.98H154.44L153.775 170.146H152.698L155.265 161.918ZM155.884 163.236L154.726 167.018H157.041L155.884 163.236ZM163.103 170.272C162.29 170.272 161.682 169.871 161.338 169.264V172.209H160.307V164.153H161.338V165.035C161.682 164.439 162.29 164.038 163.103 164.038C164.708 164.038 165.613 165.459 165.613 167.155C165.613 168.84 164.708 170.272 163.103 170.272ZM161.316 166.96V167.373C161.316 168.748 162.129 169.367 162.897 169.367C163.974 169.367 164.57 168.45 164.57 167.155C164.57 165.86 163.974 164.943 162.897 164.943C162.129 164.943 161.316 165.539 161.316 166.96ZM169.979 170.272C169.165 170.272 168.558 169.871 168.214 169.264V172.209H167.183V164.153H168.214V165.035C168.558 164.439 169.165 164.038 169.979 164.038C171.583 164.038 172.489 165.459 172.489 167.155C172.489 168.84 171.583 170.272 169.979 170.272ZM168.191 166.96V167.373C168.191 168.748 169.005 169.367 169.773 169.367C170.85 169.367 171.446 168.45 171.446 167.155C171.446 165.86 170.85 164.943 169.773 164.943C169.005 164.943 168.191 165.539 168.191 166.96ZM176.683 170.272C174.964 170.272 173.795 169 173.795 167.155C173.795 165.367 174.964 164.038 176.637 164.038C178.356 164.038 179.261 165.31 179.261 166.972V167.316H174.792C174.861 168.576 175.606 169.378 176.683 169.378C177.531 169.378 178.127 168.943 178.321 168.232L179.215 168.553C178.837 169.619 177.909 170.272 176.683 170.272ZM176.637 164.921C175.709 164.921 175.044 165.505 174.849 166.525H178.218C178.195 165.677 177.714 164.921 176.637 164.921ZM182.653 170.249C181.542 170.249 180.636 169.607 180.636 168.53C180.636 167.338 181.61 166.834 182.94 166.582L184.544 166.273V166.021C184.544 165.333 184.12 164.932 183.272 164.932C182.504 164.932 182 165.31 181.794 165.975L180.831 165.723C181.141 164.737 182.034 164.038 183.318 164.038C184.704 164.038 185.552 164.691 185.552 165.975V168.863C185.552 169.321 185.862 169.413 186.286 169.321V170.146C185.323 170.261 184.75 170.077 184.601 169.447C184.212 169.917 183.513 170.249 182.653 170.249ZM184.544 168.072V167.075L183.203 167.327C182.321 167.499 181.679 167.762 181.679 168.484C181.679 169.069 182.115 169.413 182.802 169.413C183.719 169.413 184.544 168.84 184.544 168.072ZM187.776 170.146V169.264H189.987V162.801H187.776V161.918H191.019V169.264H193.23V170.146H187.776Z" fill="white"/>
<path d="M17.0988 170.146V161.918H18.8521C21.3388 161.918 22.7827 163.522 22.7827 166.032C22.7827 168.542 21.3388 170.146 18.8521 170.146H17.0988ZM18.176 169.195H18.8521C20.7544 169.195 21.6941 167.946 21.6941 166.032C21.6941 164.107 20.7544 162.869 18.8407 162.869H18.176V169.195ZM26.3008 163.11V161.918H27.4239V163.11H26.3008ZM24.135 170.146V169.264H26.3467V165.035H24.135V164.153H27.378V169.264H29.5897V170.146H24.135ZM30.6784 168.84L31.5264 168.278C31.8817 168.977 32.7182 169.413 33.6235 169.413C34.4028 169.413 35.0903 169.092 35.0903 168.484C35.0903 167.808 34.4486 167.717 33.2912 167.51C32.2025 167.304 31.0566 167.075 31.0566 165.849C31.0566 164.783 32.088 164.038 33.4975 164.038C34.7122 164.038 35.6404 164.588 36.03 165.299L35.2393 165.86C34.907 165.253 34.2767 164.886 33.4058 164.886C32.6151 164.886 32.0765 165.23 32.0765 165.769C32.0765 166.33 32.7411 166.445 33.6693 166.628C34.8153 166.869 36.1331 167.063 36.1331 168.37C36.1331 169.516 34.9872 170.272 33.5662 170.272C32.3515 170.272 31.1827 169.768 30.6784 168.84ZM39.17 168.221V165.035H37.4052V164.153H39.17V162.399H40.1784V164.153H42.9401V165.035H40.1784V168.141C40.1784 168.954 40.6597 169.287 41.6108 169.287C42.0807 169.287 42.5505 169.206 42.9745 169.08V170.008C42.5734 170.123 42.0004 170.215 41.4504 170.215C40.2013 170.215 39.17 169.688 39.17 168.221ZM46.9281 163.11V161.918H48.0511V163.11H46.9281ZM44.7623 170.146V169.264H46.9739V165.035H44.7623V164.153H48.0053V169.264H50.2169V170.146H44.7623ZM51.7755 170.146V164.153H52.8069V164.966C53.1392 164.474 53.7466 164.038 54.5945 164.038C55.8665 164.038 56.5885 164.921 56.5885 166.193V170.146H55.5571V166.468C55.5571 165.631 55.2019 165.001 54.3081 165.001C53.5632 165.001 52.8069 165.574 52.8069 166.571V170.146H51.7755ZM59.3388 167.155C59.3388 168.519 60.1295 169.367 61.2984 169.367C62.2152 169.367 62.7652 168.84 62.96 168.095L63.8309 168.519C63.533 169.516 62.6162 170.272 61.2869 170.272C59.568 170.272 58.3304 169 58.3304 167.155C58.3304 165.299 59.568 164.038 61.2869 164.038C62.6048 164.038 63.5101 164.76 63.8195 165.757L62.96 166.204C62.7652 165.471 62.2152 164.932 61.2984 164.932C60.1295 164.932 59.3388 165.78 59.3388 167.155ZM66.673 168.221V165.035H64.9082V164.153H66.673V162.399H67.6814V164.153H70.4431V165.035H67.6814V168.141C67.6814 168.954 68.1627 169.287 69.1138 169.287C69.5837 169.287 70.0535 169.206 70.4775 169.08V170.008C70.0764 170.123 69.5034 170.215 68.9534 170.215C67.7043 170.215 66.673 169.688 66.673 168.221ZM74.4311 163.11V161.918H75.5541V163.11H74.4311ZM72.2653 170.146V169.264H74.4769V165.035H72.2653V164.153H75.5083V169.264H77.7199V170.146H72.2653ZM82.1548 170.146H81.135L78.6597 164.153H79.7484L81.6621 168.908L83.5529 164.153H84.6301L82.1548 170.146ZM86.1543 170.146V164.153H87.1856V164.966C87.518 164.474 88.1253 164.038 88.9733 164.038C90.2453 164.038 90.9672 164.921 90.9672 166.193V170.146H89.9359V166.468C89.9359 165.631 89.5806 165.001 88.6868 165.001C87.942 165.001 87.1856 165.574 87.1856 166.571V170.146H86.1543ZM95.5511 170.272C93.8322 170.272 92.6633 169 92.6633 167.155C92.6633 165.367 93.8322 164.038 95.5053 164.038C97.2242 164.038 98.1295 165.31 98.1295 166.972V167.316H93.6603C93.7291 168.576 94.4739 169.378 95.5511 169.378C96.3991 169.378 96.995 168.943 97.1898 168.232L98.0836 168.553C97.7055 169.619 96.7773 170.272 95.5511 170.272ZM95.5053 164.921C94.5771 164.921 93.9124 165.505 93.7176 166.525H97.0867C97.0637 165.677 96.5825 164.921 95.5053 164.921ZM99.4359 168.84L100.284 168.278C100.639 168.977 101.476 169.413 102.381 169.413C103.16 169.413 103.848 169.092 103.848 168.484C103.848 167.808 103.206 167.717 102.049 167.51C100.96 167.304 99.8141 167.075 99.8141 165.849C99.8141 164.783 100.845 164.038 102.255 164.038C103.47 164.038 104.398 164.588 104.787 165.299L103.997 165.86C103.664 165.253 103.034 164.886 102.163 164.886C101.373 164.886 100.834 165.23 100.834 165.769C100.834 166.33 101.499 166.445 102.427 166.628C103.573 166.869 104.891 167.063 104.891 168.37C104.891 169.516 103.745 170.272 102.324 170.272C101.109 170.272 99.9402 169.768 99.4359 168.84ZM106.312 168.84L107.16 168.278C107.515 168.977 108.351 169.413 109.257 169.413C110.036 169.413 110.724 169.092 110.724 168.484C110.724 167.808 110.082 167.717 108.924 167.51C107.836 167.304 106.69 167.075 106.69 165.849C106.69 164.783 107.721 164.038 109.131 164.038C110.345 164.038 111.274 164.588 111.663 165.299L110.873 165.86C110.54 165.253 109.91 164.886 109.039 164.886C108.248 164.886 107.71 165.23 107.71 165.769C107.71 166.33 108.374 166.445 109.303 166.628C110.449 166.869 111.766 167.063 111.766 168.37C111.766 169.516 110.62 170.272 109.199 170.272C107.985 170.272 106.816 169.768 106.312 168.84Z" fill="white"/>
<path d="M28.7325 128.838H19.7133V132.063H17.5109V126.662H31.4068V128.838C26.8185 133.951 25.4814 138.697 25.4814 145.487H22.9382C22.9382 138.172 24.957 133.06 28.7325 128.838ZM36.7032 136.73L34.4222 136.337L35.235 126.662H45.4865V128.865H37.1751L36.6508 134.554C37.4898 133.741 38.7483 133.086 40.4 133.086C44.0707 133.086 46.4828 135.813 46.4828 139.378C46.4828 142.944 43.7036 145.776 39.9281 145.776C36.3624 145.776 33.7929 143.783 33.1637 140.217L35.5758 139.719C35.9691 142.131 37.5946 143.678 39.9281 143.678C42.314 143.678 44.1231 141.843 44.1231 139.431C44.1231 137.045 42.5237 135.131 40.1116 135.131C38.5385 135.131 37.3587 135.839 36.7032 136.73ZM48.2659 130.936C48.2659 128.235 49.4457 126.374 51.517 126.374C53.5883 126.374 54.7943 128.235 54.7943 130.936C54.7943 133.636 53.5883 135.472 51.517 135.472C49.4457 135.472 48.2659 133.636 48.2659 130.936ZM63.0532 126.662L50.4945 145.487H48.2659L60.8246 126.662H63.0532ZM49.9439 130.936C49.9439 132.719 50.4683 133.846 51.517 133.846C52.5657 133.846 53.0639 132.719 53.0639 130.936C53.0639 129.153 52.5657 127.999 51.517 127.999C50.4683 127.999 49.9439 129.153 49.9439 130.936ZM63.0532 141.214C63.0532 143.914 61.8472 145.776 59.8021 145.776C57.7046 145.776 56.5248 143.914 56.5248 141.214C56.5248 138.513 57.7046 136.678 59.8021 136.678C61.8472 136.678 63.0532 138.513 63.0532 141.214ZM58.229 141.214C58.229 142.997 58.7271 144.15 59.8021 144.15C60.8246 144.15 61.349 142.997 61.349 141.214C61.349 139.431 60.8246 138.303 59.8021 138.303C58.7271 138.303 58.229 139.431 58.229 141.214Z" fill="white"/>
<rect x="19.0216" y="277.853" width="172.158" height="37.2194" fill="white"/>
<rect x="19.0216" y="277.853" width="172.158" height="37.2194" stroke="black" stroke-width="0.691721"/>
<circle cx="37.6312" cy="296.463" r="11.7245" fill="#E3AE17"/>
<path d="M57.2638 294.5V295.784H56.0021V294.422C56.0021 293.581 56.5555 293.039 57.4409 293.017V293.592C56.9539 293.636 56.6883 293.891 56.6883 294.378V294.5H57.2638ZM59.1896 294.5V295.784H57.9279V294.422C57.9279 293.581 58.4812 293.039 59.3666 293.017V293.592C58.8797 293.636 58.614 293.891 58.614 294.378V294.5H59.1896ZM61.5714 293.017V300.963H60.5089V293.017H61.5714ZM62.8874 294.3V293.017H64.1491V294.378C64.1491 295.219 63.5957 295.761 62.7103 295.784V295.208C63.1973 295.164 63.4629 294.909 63.4629 294.422V294.3H62.8874ZM66.4001 293.017V300.963H65.404V293.017H66.4001ZM69.0589 293.017V300.963H68.0628V293.017H69.0589ZM73.0561 300.963V295.175H74.0522V295.961C74.3842 295.485 74.9598 295.064 75.7788 295.064C77.0073 295.064 77.7045 295.916 77.7045 297.145V300.963H76.7084V297.41C76.7084 296.603 76.3653 295.994 75.5021 295.994C74.7827 295.994 74.0522 296.547 74.0522 297.51V300.963H73.0561ZM81.6164 301.085C80.0116 301.085 78.9048 299.856 78.9048 298.075C78.9048 296.348 80.0005 295.064 81.5721 295.064C83.188 295.064 84.0402 296.293 84.0402 297.897V298.229H79.8566C79.912 299.447 80.6092 300.222 81.6164 300.222C82.3911 300.222 82.9445 299.801 83.1215 299.115L83.9959 299.425C83.6417 300.454 82.7674 301.085 81.6164 301.085ZM81.561 295.916C80.7199 295.916 80.089 296.481 79.912 297.466H83.033C83.0109 296.647 82.5682 295.916 81.561 295.916ZM87.6401 300.963H86.6551L84.4859 295.175H85.5373L87.1642 299.746L88.769 295.175H89.8094L87.6401 300.963ZM92.9433 301.085C91.3385 301.085 90.2317 299.856 90.2317 298.075C90.2317 296.348 91.3274 295.064 92.899 295.064C94.5149 295.064 95.3671 296.293 95.3671 297.897V298.229H91.1836C91.2389 299.447 91.9361 300.222 92.9433 300.222C93.718 300.222 94.2714 299.801 94.4485 299.115L95.3228 299.425C94.9687 300.454 94.0943 301.085 92.9433 301.085ZM92.888 295.916C92.0468 295.916 91.416 296.481 91.2389 297.466H94.3599C94.3378 296.647 93.8951 295.916 92.888 295.916ZM99.6064 295.153V296.16C99.4404 296.127 99.3076 296.116 99.1194 296.116C98.2783 296.116 97.6032 296.78 97.6032 297.798V300.963H96.6071V295.175H97.6032V296.16C97.8577 295.573 98.4222 295.131 99.208 295.131C99.3629 295.131 99.5068 295.142 99.6064 295.153ZM103.193 299.58V296.027H102.296V295.175H103.193V293.481H104.178V295.175H105.495V296.027H104.178V299.425C104.178 300.033 104.477 300.144 104.986 300.144C105.218 300.144 105.384 300.133 105.617 300.078V300.93C105.362 300.985 105.074 301.018 104.742 301.018C103.757 301.018 103.193 300.686 103.193 299.58ZM111.747 298.075C111.747 299.867 110.64 301.085 109.058 301.085C107.475 301.085 106.368 299.867 106.368 298.075C106.368 296.282 107.475 295.064 109.058 295.064C110.64 295.064 111.747 296.282 111.747 298.075ZM107.375 298.075C107.375 299.392 108.04 300.233 109.058 300.233C110.076 300.233 110.74 299.392 110.74 298.075C110.74 296.746 110.076 295.905 109.058 295.905C108.04 295.905 107.375 296.746 107.375 298.075ZM117.607 295.175V300.963H116.611V300.166C116.279 300.653 115.714 301.085 114.895 301.085C113.656 301.085 112.959 300.233 112.959 299.004V295.175H113.955V298.794C113.955 299.613 114.309 300.166 115.161 300.166C115.88 300.166 116.611 299.624 116.611 298.661V295.175H117.607ZM119.859 298.075C119.859 299.392 120.567 300.211 121.596 300.211C122.393 300.211 122.869 299.701 123.035 298.982L123.92 299.392C123.644 300.354 122.803 301.085 121.596 301.085C119.98 301.085 118.863 299.856 118.863 298.075C118.863 296.282 119.98 295.064 121.596 295.064C122.803 295.064 123.622 295.761 123.898 296.724L123.035 297.156C122.869 296.448 122.393 295.927 121.596 295.927C120.567 295.927 119.859 296.746 119.859 298.075ZM125.011 300.963V293.017H126.007V295.961C126.339 295.485 126.914 295.064 127.733 295.064C128.962 295.064 129.659 295.916 129.659 297.145V300.963H128.663V297.41C128.663 296.603 128.32 295.994 127.457 295.994C126.737 295.994 126.007 296.547 126.007 297.51V300.963H125.011ZM133.637 300.963V293.017H134.699V300.033H138.661V300.963H133.637ZM144.55 298.075C144.55 299.867 143.443 301.085 141.86 301.085C140.278 301.085 139.171 299.867 139.171 298.075C139.171 296.282 140.278 295.064 141.86 295.064C143.443 295.064 144.55 296.282 144.55 298.075ZM140.178 298.075C140.178 299.392 140.842 300.233 141.86 300.233C142.879 300.233 143.543 299.392 143.543 298.075C143.543 296.746 142.879 295.905 141.86 295.905C140.842 295.905 140.178 296.746 140.178 298.075ZM148.464 295.175H149.305L150.501 299.491L151.707 295.175H152.703L150.943 300.963H150.069L148.863 296.669L147.656 300.963H146.782L145.022 295.175H146.052L147.269 299.48L148.464 295.175ZM156.606 298.075C156.606 299.392 157.315 300.211 158.344 300.211C159.141 300.211 159.617 299.701 159.783 298.982L160.668 299.392C160.391 300.354 159.55 301.085 158.344 301.085C156.728 301.085 155.61 299.856 155.61 298.075C155.61 296.282 156.728 295.064 158.344 295.064C159.55 295.064 160.369 295.761 160.646 296.724L159.783 297.156C159.617 296.448 159.141 295.927 158.344 295.927C157.315 295.927 156.606 296.746 156.606 298.075ZM163.273 301.063C162.222 301.063 161.37 300.443 161.37 299.403C161.37 298.252 162.266 297.776 163.561 297.51L164.967 297.222V296.979C164.967 296.315 164.601 295.938 163.827 295.938C163.096 295.938 162.665 296.282 162.487 296.923L161.547 296.68C161.823 295.739 162.676 295.064 163.86 295.064C165.155 295.064 165.952 295.695 165.952 296.935V299.757C165.952 300.133 166.184 300.255 166.571 300.166V300.963C165.686 301.074 165.177 300.864 165.055 300.31C164.701 300.764 164.059 301.063 163.273 301.063ZM164.967 298.993V297.997L163.838 298.241C162.952 298.418 162.355 298.661 162.355 299.358C162.355 299.923 162.764 300.255 163.395 300.255C164.247 300.255 164.967 299.735 164.967 298.993ZM170.648 295.153V296.16C170.482 296.127 170.349 296.116 170.161 296.116C169.32 296.116 168.645 296.78 168.645 297.798V300.963H167.649V295.175H168.645V296.16C168.9 295.573 169.464 295.131 170.25 295.131C170.405 295.131 170.549 295.142 170.648 295.153ZM174.534 301.085C173.726 301.085 173.084 300.698 172.741 300.122V300.963H171.745V293.017H172.741V296.016C173.084 295.452 173.726 295.064 174.534 295.064C176.139 295.064 177.058 296.425 177.058 298.075C177.058 299.713 176.139 301.085 174.534 301.085ZM172.719 297.875V298.285C172.719 299.613 173.538 300.211 174.357 300.211C175.442 300.211 176.051 299.314 176.051 298.075C176.051 296.824 175.442 295.938 174.357 295.938C173.538 295.938 172.719 296.525 172.719 297.875ZM178.35 298.606L178.095 293.017H179.346L179.091 298.606H178.35ZM178.084 300.963V299.657H179.346V300.963H178.084ZM182.308 294.3V293.017H183.57V294.378C183.57 295.219 183.017 295.761 182.131 295.784V295.208C182.618 295.164 182.884 294.909 182.884 294.422V294.3H182.308ZM180.383 294.3V293.017H181.644V294.378C181.644 295.219 181.091 295.761 180.206 295.784V295.208C180.693 295.164 180.958 294.909 180.958 294.422V294.3H180.383Z" fill="#040404"/>
<rect x="19.0216" y="187.569" width="157.696" height="37.2194" fill="white"/>
<rect x="19.0216" y="187.569" width="157.696" height="37.2194" stroke="black" stroke-width="0.691721"/>
<circle cx="37.6312" cy="206.179" r="11.7245" fill="#C2AC0C"/>
<path d="M57.2638 204.215V205.499H56.0021V204.138C56.0021 203.297 56.5555 202.754 57.4409 202.732V203.308C56.9539 203.352 56.6883 203.607 56.6883 204.094V204.215H57.2638ZM59.1896 204.215V205.499H57.9279V204.138C57.9279 203.297 58.4812 202.754 59.3666 202.732V203.308C58.8797 203.352 58.614 203.607 58.614 204.094V204.215H59.1896ZM63.326 206.373L65.5948 202.732H66.7237L63.8461 207.336V210.679H62.7837V207.336L59.9061 202.732H61.0571L63.326 206.373ZM71.3804 204.89V210.679H70.3844V209.882C70.0523 210.369 69.4879 210.8 68.6689 210.8C67.4293 210.8 66.7321 209.948 66.7321 208.72V204.89H67.7282V208.509C67.7282 209.328 68.0823 209.882 68.9345 209.882C69.6539 209.882 70.3844 209.34 70.3844 208.377V204.89H71.3804ZM74.0306 207.215V210.679H73.0345V204.89H74.0306V205.676C74.3405 205.2 74.8939 204.78 75.7018 204.78C76.4765 204.78 77.0188 205.167 77.3066 205.765C77.6276 205.289 78.2473 204.78 79.1549 204.78C80.3502 204.78 81.0696 205.632 81.0696 206.86V210.679H80.0735V207.126C80.0735 206.318 79.7415 205.709 78.9225 205.709C78.2584 205.709 77.5501 206.274 77.5501 207.215V210.679H76.554V207.126C76.554 206.318 76.222 205.709 75.403 205.709C74.7389 205.709 74.0306 206.274 74.0306 207.215ZM82.443 210.679V209.373H83.7047V210.745C83.7047 211.608 83.1513 212.129 82.2659 212.151V211.575C82.7639 211.553 83.0185 211.298 83.0185 210.767V210.679H82.443ZM92.842 202.732H93.9044V210.679H92.842V207.037H88.581V210.679H87.5185V202.732H88.581V206.108H92.842V202.732ZM97.0626 210.778C96.0112 210.778 95.159 210.159 95.159 209.118C95.159 207.967 96.0554 207.491 97.3503 207.226L98.7559 206.938V206.694C98.7559 206.03 98.3907 205.654 97.616 205.654C96.8855 205.654 96.4539 205.997 96.2768 206.639L95.336 206.396C95.6127 205.455 96.4649 204.78 97.6492 204.78C98.9441 204.78 99.7409 205.411 99.7409 206.65V209.472C99.7409 209.849 99.9733 209.97 100.361 209.882V210.679C99.4753 210.789 98.9662 210.579 98.8445 210.026C98.4903 210.479 97.8484 210.778 97.0626 210.778ZM98.7559 208.709V207.713L97.627 207.956C96.7416 208.133 96.144 208.377 96.144 209.074C96.144 209.638 96.5535 209.97 97.1843 209.97C98.0365 209.97 98.7559 209.45 98.7559 208.709ZM105.622 209.827V210.679H101.062V209.926L104.404 205.743H101.106V204.89H105.589V205.654L102.313 209.827H105.622ZM109.065 211.31C108.733 212.184 108.279 212.737 107.272 212.737C107.029 212.737 106.907 212.726 106.73 212.693V211.83C106.918 211.874 107.04 211.885 107.206 211.885C107.637 211.885 107.87 211.73 108.102 211.155L108.379 210.468L106.232 204.89H107.283L108.91 209.317L110.515 204.89H111.555L109.065 211.31ZM116.312 210.778C115.26 210.778 114.408 210.159 114.408 209.118C114.408 207.967 115.305 207.491 116.6 207.226L118.005 206.938V206.694C118.005 206.03 117.64 205.654 116.865 205.654C116.135 205.654 115.703 205.997 115.526 206.639L114.585 206.396C114.862 205.455 115.714 204.78 116.898 204.78C118.193 204.78 118.99 205.411 118.99 206.65V209.472C118.99 209.849 119.223 209.97 119.61 209.882V210.679C118.725 210.789 118.215 210.579 118.094 210.026C117.74 210.479 117.098 210.778 116.312 210.778ZM118.005 208.709V207.713L116.876 207.956C115.991 208.133 115.393 208.377 115.393 209.074C115.393 209.638 115.803 209.97 116.434 209.97C117.286 209.97 118.005 209.45 118.005 208.709ZM121.684 202.732V210.679H120.688V202.732H121.684ZM124.343 202.732V210.679H123.346V202.732H124.343ZM128.495 209.295V205.743H127.598V204.89H128.495V203.197H129.48V204.89H130.797V205.743H129.48V209.14C129.48 209.749 129.779 209.86 130.288 209.86C130.52 209.86 130.686 209.849 130.919 209.793V210.646C130.664 210.701 130.376 210.734 130.044 210.734C129.059 210.734 128.495 210.402 128.495 209.295ZM132.101 210.679V202.732H133.097V205.676C133.429 205.2 134.005 204.78 134.824 204.78C136.052 204.78 136.749 205.632 136.749 206.86V210.679H135.753V207.126C135.753 206.318 135.41 205.709 134.547 205.709C133.828 205.709 133.097 206.263 133.097 207.226V210.679H132.101ZM140.661 210.8C139.056 210.8 137.95 209.572 137.95 207.79C137.95 206.064 139.045 204.78 140.617 204.78C142.233 204.78 143.085 206.008 143.085 207.613V207.945H138.901C138.957 209.162 139.654 209.937 140.661 209.937C141.436 209.937 141.989 209.517 142.166 208.83L143.041 209.14C142.687 210.17 141.812 210.8 140.661 210.8ZM140.606 205.632C139.765 205.632 139.134 206.196 138.957 207.181H142.078C142.056 206.362 141.613 205.632 140.606 205.632ZM149.415 204.89H150.257L151.452 209.207L152.658 204.89H153.654L151.895 210.679H151.02L149.814 206.385L148.607 210.679H147.733L145.973 204.89H147.003L148.22 209.196L149.415 204.89ZM155.956 210.778C154.905 210.778 154.053 210.159 154.053 209.118C154.053 207.967 154.949 207.491 156.244 207.226L157.649 206.938V206.694C157.649 206.03 157.284 205.654 156.51 205.654C155.779 205.654 155.347 205.997 155.17 206.639L154.23 206.396C154.506 205.455 155.358 204.78 156.543 204.78C157.838 204.78 158.634 205.411 158.634 206.65V209.472C158.634 209.849 158.867 209.97 159.254 209.882V210.679C158.369 210.789 157.86 210.579 157.738 210.026C157.384 210.479 156.742 210.778 155.956 210.778ZM157.649 208.709V207.713L156.521 207.956C155.635 208.133 155.038 208.377 155.038 209.074C155.038 209.638 155.447 209.97 156.078 209.97C156.93 209.97 157.649 209.45 157.649 208.709ZM162.414 211.31C162.082 212.184 161.628 212.737 160.621 212.737C160.378 212.737 160.256 212.726 160.079 212.693V211.83C160.267 211.874 160.389 211.885 160.555 211.885C160.986 211.885 161.219 211.73 161.451 211.155L161.728 210.468L159.581 204.89H160.632L162.259 209.317L163.864 204.89H164.904L162.414 211.31ZM167.555 204.016V202.732H168.817V204.094C168.817 204.935 168.264 205.477 167.378 205.499V204.924C167.865 204.879 168.131 204.625 168.131 204.138V204.016H167.555ZM165.63 204.016V202.732H166.891V204.094C166.891 204.935 166.338 205.477 165.453 205.499V204.924C165.939 204.879 166.205 204.625 166.205 204.138V204.016H165.63Z" fill="#040404"/>
<rect x="19.0216" y="232.711" width="240.445" height="37.2194" fill="white"/>
<rect x="19.0216" y="232.711" width="240.445" height="37.2194" stroke="black" stroke-width="0.691721"/>
<circle cx="37.6312" cy="251.321" r="11.7245" fill="#E2E218"/>
<path d="M57.2638 249.357V250.641H56.0021V249.28C56.0021 248.439 56.5555 247.896 57.4409 247.874V248.45C56.9539 248.494 56.6883 248.749 56.6883 249.236V249.357H57.2638ZM59.1896 249.357V250.641H57.9279V249.28C57.9279 248.439 58.4812 247.896 59.3666 247.874V248.45C58.8797 248.494 58.614 248.749 58.614 249.236V249.357H59.1896ZM61.5714 252.489V255.821H60.5089V247.874H63.5414C65.2237 247.874 66.2973 248.66 66.2973 250.176C66.2973 251.67 65.2237 252.489 63.5414 252.489H61.5714ZM61.5714 251.571H63.4861C64.615 251.571 65.2458 251.073 65.2458 250.176C65.2458 249.28 64.615 248.793 63.4861 248.793H61.5714V251.571ZM69.4032 255.943C67.7984 255.943 66.6916 254.714 66.6916 252.932C66.6916 251.206 67.7873 249.922 69.3589 249.922C70.9748 249.922 71.827 251.15 71.827 252.755V253.087H67.6434C67.6988 254.305 68.396 255.079 69.4032 255.079C70.1779 255.079 70.7313 254.659 70.9084 253.973L71.7827 254.282C71.4285 255.312 70.5542 255.943 69.4032 255.943ZM69.3478 250.774C68.5067 250.774 67.8758 251.338 67.6988 252.323H70.8198C70.7977 251.504 70.355 250.774 69.3478 250.774ZM76.0663 250.01V251.017C75.9002 250.984 75.7674 250.973 75.5793 250.973C74.7382 250.973 74.063 251.637 74.063 252.655V255.821H73.067V250.032H74.063V251.017C74.3176 250.431 74.882 249.988 75.6678 249.988C75.8228 249.988 75.9666 249.999 76.0663 250.01ZM79.7515 247.775V248.66C79.5855 248.638 79.4859 248.638 79.3199 248.638C78.7333 248.638 78.4123 248.893 78.4123 249.634V250.032H79.6961V250.885H78.4123V255.821H77.4162V250.885H76.5419V250.032H77.4162V249.568C77.4162 248.439 78.036 247.753 79.2202 247.753C79.4195 247.753 79.5301 247.764 79.7515 247.775ZM82.9025 255.943C81.2977 255.943 80.191 254.714 80.191 252.932C80.191 251.206 81.2867 249.922 82.8583 249.922C84.4741 249.922 85.3263 251.15 85.3263 252.755V253.087H81.1428C81.1981 254.305 81.8954 255.079 82.9025 255.079C83.6773 255.079 84.2306 254.659 84.4077 253.973L85.2821 254.282C84.9279 255.312 84.0536 255.943 82.9025 255.943ZM82.8472 250.774C82.0061 250.774 81.3752 251.338 81.1981 252.323H84.3192C84.297 251.504 83.8543 250.774 82.8472 250.774ZM87.164 252.932C87.164 254.249 87.8723 255.068 88.9016 255.068C89.6984 255.068 90.1743 254.559 90.3403 253.84L91.2258 254.249C90.9491 255.212 90.1079 255.943 88.9016 255.943C87.2857 255.943 86.1679 254.714 86.1679 252.932C86.1679 251.139 87.2857 249.922 88.9016 249.922C90.1079 249.922 90.9269 250.619 91.2036 251.582L90.3403 252.014C90.1743 251.305 89.6984 250.785 88.9016 250.785C87.8723 250.785 87.164 251.604 87.164 252.932ZM92.4712 254.437V250.885H91.5747V250.032H92.4712V248.339H93.4562V250.032H94.7732V250.885H93.4562V254.282C93.4562 254.891 93.755 255.002 94.2641 255.002C94.4966 255.002 94.6626 254.991 94.895 254.935V255.788C94.6404 255.843 94.3527 255.876 94.0206 255.876C93.0356 255.876 92.4712 255.544 92.4712 254.437ZM101.201 255.943C100.393 255.943 99.7512 255.555 99.4081 254.98V255.821H98.412V247.874H99.4081V250.874C99.7512 250.309 100.393 249.922 101.201 249.922C102.806 249.922 103.724 251.283 103.724 252.932C103.724 254.57 102.806 255.943 101.201 255.943ZM99.386 252.733V253.142C99.386 254.471 100.205 255.068 101.024 255.068C102.109 255.068 102.717 254.172 102.717 252.932C102.717 251.682 102.109 250.796 101.024 250.796C100.205 250.796 99.386 251.383 99.386 252.733ZM107.297 255.943C105.692 255.943 104.585 254.714 104.585 252.932C104.585 251.206 105.681 249.922 107.252 249.922C108.868 249.922 109.72 251.15 109.72 252.755V253.087H105.537C105.592 254.305 106.289 255.079 107.297 255.079C108.071 255.079 108.625 254.659 108.802 253.973L109.676 254.282C109.322 255.312 108.448 255.943 107.297 255.943ZM107.241 250.774C106.4 250.774 105.769 251.338 105.592 252.323H108.713C108.691 251.504 108.248 250.774 107.241 250.774ZM113.273 255.943C111.669 255.943 110.562 254.714 110.562 252.932C110.562 251.206 111.658 249.922 113.229 249.922C114.845 249.922 115.697 251.15 115.697 252.755V253.087H111.514C111.569 254.305 112.266 255.079 113.273 255.079C114.048 255.079 114.602 254.659 114.779 253.973L115.653 254.282C115.299 255.312 114.424 255.943 113.273 255.943ZM113.218 250.774C112.377 250.774 111.746 251.338 111.569 252.323H114.69C114.668 251.504 114.225 250.774 113.218 250.774ZM119.936 250.01V251.017C119.77 250.984 119.638 250.973 119.45 250.973C118.608 250.973 117.933 251.637 117.933 252.655V255.821H116.937V250.032H117.933V251.017C118.188 250.431 118.752 249.988 119.538 249.988C119.693 249.988 119.837 249.999 119.936 250.01ZM125.891 247.775V248.66C125.725 248.638 125.626 248.638 125.46 248.638C124.873 248.638 124.552 248.893 124.552 249.634V250.032H125.836V250.885H124.552V255.821H123.556V250.885H122.682V250.032H123.556V249.568C123.556 248.439 124.176 247.753 125.36 247.753C125.559 247.753 125.67 247.764 125.891 247.775ZM131.71 252.932C131.71 254.725 130.603 255.943 129.02 255.943C127.438 255.943 126.331 254.725 126.331 252.932C126.331 251.139 127.438 249.922 129.02 249.922C130.603 249.922 131.71 251.139 131.71 252.932ZM127.338 252.932C127.338 254.249 128.002 255.09 129.02 255.09C130.039 255.09 130.703 254.249 130.703 252.932C130.703 251.604 130.039 250.763 129.02 250.763C128.002 250.763 127.338 251.604 127.338 252.932ZM135.976 250.01V251.017C135.81 250.984 135.677 250.973 135.489 250.973C134.648 250.973 133.973 251.637 133.973 252.655V255.821H132.976V250.032H133.973V251.017C134.227 250.431 134.792 249.988 135.577 249.988C135.732 249.988 135.876 249.999 135.976 250.01ZM140.857 255.92C139.806 255.92 138.954 255.301 138.954 254.26C138.954 253.109 139.85 252.633 141.145 252.368L142.55 252.08V251.836C142.55 251.172 142.185 250.796 141.411 250.796C140.68 250.796 140.248 251.139 140.071 251.781L139.131 251.538C139.407 250.597 140.26 249.922 141.444 249.922C142.739 249.922 143.536 250.553 143.536 251.792V254.614C143.536 254.991 143.768 255.112 144.155 255.024V255.821C143.27 255.931 142.761 255.721 142.639 255.168C142.285 255.622 141.643 255.92 140.857 255.92ZM142.55 253.851V252.855L141.422 253.098C140.536 253.275 139.939 253.519 139.939 254.216C139.939 254.78 140.348 255.112 140.979 255.112C141.831 255.112 142.55 254.592 142.55 253.851ZM147.756 247.775V248.66C147.59 248.638 147.491 248.638 147.325 248.638C146.738 248.638 146.417 248.893 146.417 249.634V250.032H147.701V250.885H146.417V255.821H145.421V250.885H144.547V250.032H145.421V249.568C145.421 248.439 146.041 247.753 147.225 247.753C147.424 247.753 147.535 247.764 147.756 247.775ZM148.955 254.437V250.885H148.058V250.032H148.955V248.339H149.94V250.032H151.257V250.885H149.94V254.282C149.94 254.891 150.238 255.002 150.747 255.002C150.98 255.002 151.146 254.991 151.378 254.935V255.788C151.124 255.843 150.836 255.876 150.504 255.876C149.519 255.876 148.955 255.544 148.955 254.437ZM154.842 255.943C153.237 255.943 152.13 254.714 152.13 252.932C152.13 251.206 153.226 249.922 154.797 249.922C156.413 249.922 157.265 251.15 157.265 252.755V253.087H153.082C153.137 254.305 153.834 255.079 154.842 255.079C155.616 255.079 156.17 254.659 156.347 253.973L157.221 254.282C156.867 255.312 155.993 255.943 154.842 255.943ZM154.786 250.774C153.945 250.774 153.314 251.338 153.137 252.323H156.258C156.236 251.504 155.793 250.774 154.786 250.774ZM161.505 250.01V251.017C161.339 250.984 161.206 250.973 161.018 250.973C160.176 250.973 159.501 251.637 159.501 252.655V255.821H158.505V250.032H159.501V251.017C159.756 250.431 160.32 249.988 161.106 249.988C161.261 249.988 161.405 249.999 161.505 250.01ZM165.932 252.357V255.821H164.936V250.032H165.932V250.818C166.242 250.342 166.795 249.922 167.603 249.922C168.378 249.922 168.92 250.309 169.208 250.907C169.529 250.431 170.149 249.922 171.056 249.922C172.252 249.922 172.971 250.774 172.971 252.003V255.821H171.975V252.268C171.975 251.46 171.643 250.851 170.824 250.851C170.16 250.851 169.452 251.416 169.452 252.357V255.821H168.456V252.268C168.456 251.46 168.124 250.851 167.305 250.851C166.641 250.851 165.932 251.416 165.932 252.357ZM179.557 252.932C179.557 254.725 178.451 255.943 176.868 255.943C175.285 255.943 174.179 254.725 174.179 252.932C174.179 251.139 175.285 249.922 176.868 249.922C178.451 249.922 179.557 251.139 179.557 252.932ZM175.186 252.932C175.186 254.249 175.85 255.09 176.868 255.09C177.886 255.09 178.55 254.249 178.55 252.932C178.55 251.604 177.886 250.763 176.868 250.763C175.85 250.763 175.186 251.604 175.186 252.932ZM183.472 250.032H184.313L185.508 254.349L186.715 250.032H187.711L185.951 255.821H185.077L183.87 251.527L182.664 255.821H181.79L180.03 250.032H181.059L182.277 254.338L183.472 250.032ZM188.637 249.025V247.874H189.722V249.025H188.637ZM189.678 250.032V255.821H188.682V250.032H189.678ZM191.34 255.821V250.032H192.337V250.818C192.669 250.342 193.244 249.922 194.063 249.922C195.292 249.922 195.989 250.774 195.989 252.003V255.821H194.993V252.268C194.993 251.46 194.65 250.851 193.786 250.851C193.067 250.851 192.337 251.405 192.337 252.368V255.821H191.34ZM202.49 255.301C202.49 256.994 201.373 257.935 199.801 257.935C198.528 257.935 197.599 257.348 197.278 256.286L198.207 255.931C198.395 256.673 198.993 257.105 199.801 257.105C200.819 257.105 201.494 256.584 201.494 255.378V254.725C201.184 255.29 200.531 255.688 199.724 255.688C198.141 255.688 197.211 254.382 197.211 252.799C197.211 251.228 198.141 249.922 199.724 249.922C200.52 249.922 201.184 250.32 201.494 250.885V250.032H202.49V255.301ZM201.505 252.711C201.505 251.416 200.731 250.796 199.901 250.796C198.849 250.796 198.207 251.582 198.207 252.799C198.207 254.017 198.849 254.814 199.901 254.814C200.731 254.814 201.505 254.194 201.505 252.921V252.711ZM206.638 254.437V250.885H205.741V250.032H206.638V248.339H207.623V250.032H208.94V250.885H207.623V254.282C207.623 254.891 207.921 255.002 208.431 255.002C208.663 255.002 208.829 254.991 209.061 254.935V255.788C208.807 255.843 208.519 255.876 208.187 255.876C207.202 255.876 206.638 255.544 206.638 254.437ZM210.244 255.821V247.874H211.24V250.818C211.572 250.342 212.147 249.922 212.966 249.922C214.195 249.922 214.892 250.774 214.892 252.003V255.821H213.896V252.268C213.896 251.46 213.553 250.851 212.69 250.851C211.97 250.851 211.24 251.405 211.24 252.368V255.821H210.244ZM218.804 255.943C217.199 255.943 216.093 254.714 216.093 252.932C216.093 251.206 217.188 249.922 218.76 249.922C220.376 249.922 221.228 251.15 221.228 252.755V253.087H217.044C217.1 254.305 217.797 255.079 218.804 255.079C219.579 255.079 220.132 254.659 220.309 253.973L221.184 254.282C220.829 255.312 219.955 255.943 218.804 255.943ZM218.749 250.774C217.908 250.774 217.277 251.338 217.1 252.323H220.221C220.199 251.504 219.756 250.774 218.749 250.774ZM225.799 247.874V255.821H224.802V247.874H225.799ZM228.911 255.92C227.86 255.92 227.007 255.301 227.007 254.26C227.007 253.109 227.904 252.633 229.199 252.368L230.604 252.08V251.836C230.604 251.172 230.239 250.796 229.464 250.796C228.734 250.796 228.302 251.139 228.125 251.781L227.185 251.538C227.461 250.597 228.313 249.922 229.498 249.922C230.793 249.922 231.589 250.553 231.589 251.792V254.614C231.589 254.991 231.822 255.112 232.209 255.024V255.821C231.324 255.931 230.815 255.721 230.693 255.168C230.339 255.622 229.697 255.92 228.911 255.92ZM230.604 253.851V252.855L229.476 253.098C228.59 253.275 227.992 253.519 227.992 254.216C227.992 254.78 228.402 255.112 229.033 255.112C229.885 255.112 230.604 254.592 230.604 253.851ZM235.978 250.032H236.819L238.014 254.349L239.221 250.032H240.217L238.457 255.821H237.583L236.376 251.527L235.17 255.821H234.296L232.536 250.032H233.565L234.782 254.338L235.978 250.032ZM241.188 255.821V250.032H242.184V250.818C242.516 250.342 243.091 249.922 243.91 249.922C245.139 249.922 245.836 250.774 245.836 252.003V255.821H244.84V252.268C244.84 251.46 244.497 250.851 243.633 250.851C242.914 250.851 242.184 251.405 242.184 252.368V255.821H241.188ZM246.793 254.592L247.567 254.028C247.877 254.703 248.586 255.112 249.338 255.112C250.013 255.112 250.611 254.825 250.611 254.194C250.611 253.563 250.058 253.474 249.106 253.275C248.154 253.065 247.158 252.855 247.158 251.67C247.158 250.641 248.054 249.922 249.283 249.922C250.323 249.922 251.176 250.431 251.519 251.117L250.81 251.682C250.511 251.106 249.969 250.741 249.239 250.741C248.575 250.741 248.132 251.073 248.132 251.593C248.132 252.135 248.641 252.235 249.449 252.412C250.445 252.644 251.585 252.844 251.585 254.105C251.585 255.212 250.578 255.943 249.338 255.943C248.287 255.943 247.235 255.489 246.793 254.592Z" fill="#040404"/>
<path d="M285.134 166.697V170.146H284.033V161.918H287.013C288.755 161.918 289.855 162.732 289.855 164.302C289.855 165.849 288.755 166.697 287.013 166.697H285.134ZM285.134 165.746H286.944C288.124 165.746 288.778 165.23 288.778 164.302C288.778 163.373 288.124 162.869 286.944 162.869H285.134V165.746ZM295.951 164.153V170.146H294.92V169.321C294.576 169.825 293.992 170.272 293.144 170.272C291.872 170.272 291.138 169.39 291.138 168.118V164.153H292.17V167.9C292.17 168.748 292.536 169.321 293.419 169.321C294.164 169.321 294.92 168.759 294.92 167.762V164.153H295.951ZM297.705 170.146V169.264H299.389V165.035H297.705V164.153H300.409V165.253C300.776 164.554 301.567 164.038 302.575 164.038C302.976 164.038 303.297 164.095 303.503 164.187V165.207C303.228 165.115 302.907 165.047 302.472 165.047C301.406 165.047 300.409 165.769 300.409 166.869V169.264H302.678V170.146H297.705ZM305.646 167.155C305.646 168.519 306.437 169.367 307.606 169.367C308.522 169.367 309.073 168.84 309.267 168.095L310.138 168.519C309.84 169.516 308.924 170.272 307.594 170.272C305.875 170.272 304.638 169 304.638 167.155C304.638 165.299 305.875 164.038 307.594 164.038C308.912 164.038 309.817 164.76 310.127 165.757L309.267 166.204C309.073 165.471 308.522 164.932 307.606 164.932C306.437 164.932 305.646 165.78 305.646 167.155ZM311.834 170.146V161.918H312.866V164.966C313.198 164.474 313.805 164.038 314.653 164.038C315.925 164.038 316.647 164.921 316.647 166.193V170.146H315.616V166.468C315.616 165.631 315.261 165.001 314.367 165.001C313.622 165.001 312.866 165.574 312.866 166.571V170.146H311.834ZM320.326 170.249C319.214 170.249 318.309 169.607 318.309 168.53C318.309 167.338 319.283 166.834 320.612 166.582L322.217 166.273V166.021C322.217 165.333 321.793 164.932 320.945 164.932C320.177 164.932 319.673 165.31 319.466 165.975L318.504 165.723C318.813 164.737 319.707 164.038 320.991 164.038C322.377 164.038 323.225 164.691 323.225 165.975V168.863C323.225 169.321 323.535 169.413 323.959 169.321V170.146C322.996 170.261 322.423 170.077 322.274 169.447C321.884 169.917 321.185 170.249 320.326 170.249ZM322.217 168.072V167.075L320.876 167.327C319.994 167.499 319.352 167.762 319.352 168.484C319.352 169.069 319.787 169.413 320.475 169.413C321.392 169.413 322.217 168.84 322.217 168.072ZM325.116 168.84L325.964 168.278C326.319 168.977 327.156 169.413 328.061 169.413C328.84 169.413 329.528 169.092 329.528 168.484C329.528 167.808 328.886 167.717 327.729 167.51C326.64 167.304 325.494 167.075 325.494 165.849C325.494 164.783 326.526 164.038 327.935 164.038C329.15 164.038 330.078 164.588 330.468 165.299L329.677 165.86C329.345 165.253 328.714 164.886 327.843 164.886C327.053 164.886 326.514 165.23 326.514 165.769C326.514 166.33 327.179 166.445 328.107 166.628C329.253 166.869 330.571 167.063 330.571 168.37C330.571 169.516 329.425 170.272 328.004 170.272C326.789 170.272 325.62 169.768 325.116 168.84ZM334.983 170.272C333.264 170.272 332.095 169 332.095 167.155C332.095 165.367 333.264 164.038 334.937 164.038C336.656 164.038 337.561 165.31 337.561 166.972V167.316H333.092C333.161 168.576 333.905 169.378 334.983 169.378C335.831 169.378 336.427 168.943 336.621 168.232L337.515 168.553C337.137 169.619 336.209 170.272 334.983 170.272ZM334.937 164.921C334.009 164.921 333.344 165.505 333.149 166.525H336.518C336.495 165.677 336.014 164.921 334.937 164.921ZM351.462 169.183V170.146H345.709V169.183H348.035V162.881H345.709V161.918H351.462V162.881H349.135V169.183H351.462ZM353.089 170.146V164.153H354.12V164.966C354.453 164.474 355.06 164.038 355.908 164.038C357.18 164.038 357.902 164.921 357.902 166.193V170.146H356.87V166.468C356.87 165.631 356.515 165.001 355.621 165.001C354.877 165.001 354.12 165.574 354.12 166.571V170.146H353.089ZM361.111 168.221V165.035H359.346V164.153H361.111V162.399H362.119V164.153H364.881V165.035H362.119V168.141C362.119 168.954 362.6 169.287 363.551 169.287C364.021 169.287 364.491 169.206 364.915 169.08V170.008C364.514 170.123 363.941 170.215 363.391 170.215C362.142 170.215 361.111 169.688 361.111 168.221ZM369.361 170.272C367.643 170.272 366.474 169 366.474 167.155C366.474 165.367 367.643 164.038 369.316 164.038C371.034 164.038 371.94 165.31 371.94 166.972V167.316H367.471C367.539 168.576 368.284 169.378 369.361 169.378C370.209 169.378 370.805 168.943 371 168.232L371.894 168.553C371.516 169.619 370.588 170.272 369.361 170.272ZM369.316 164.921C368.387 164.921 367.723 165.505 367.528 166.525H370.897C370.874 165.677 370.393 164.921 369.316 164.921ZM373.716 170.146V164.153H374.747V164.966C375.08 164.474 375.687 164.038 376.535 164.038C377.807 164.038 378.529 164.921 378.529 166.193V170.146H377.498V166.468C377.498 165.631 377.142 165.001 376.249 165.001C375.504 165.001 374.747 165.574 374.747 166.571V170.146H373.716ZM381.738 168.221V165.035H379.973V164.153H381.738V162.399H382.746V164.153H385.508V165.035H382.746V168.141C382.746 168.954 383.228 169.287 384.179 169.287C384.648 169.287 385.118 169.206 385.542 169.08V170.008C385.141 170.123 384.568 170.215 384.018 170.215C382.769 170.215 381.738 169.688 381.738 168.221Z" fill="white"/>
<path d="M291.131 126.374C294.566 126.374 297.109 128.393 297.109 131.408C297.109 133.296 296.034 134.764 294.173 135.498C296.427 136.18 298.105 137.91 298.105 140.296C298.105 143.6 295.169 145.749 291.131 145.749C287.094 145.749 284.157 143.6 284.157 140.296C284.157 137.91 285.835 136.18 288.09 135.498C286.228 134.764 285.153 133.296 285.153 131.408C285.153 128.393 287.697 126.374 291.131 126.374ZM291.131 134.502C293.36 134.502 294.854 133.296 294.854 131.434C294.854 129.599 293.36 128.367 291.131 128.367C288.929 128.367 287.408 129.599 287.408 131.434C287.408 133.296 288.929 134.502 291.131 134.502ZM291.131 136.573C288.483 136.573 286.622 138.041 286.622 140.139C286.622 142.289 288.483 143.757 291.131 143.757C293.779 143.757 295.641 142.289 295.641 140.139C295.641 138.041 293.779 136.573 291.131 136.573ZM310.769 145.487H308.488V140.558H299.574V138.618L307.649 126.662H310.822V138.487H314.283V140.558H310.769V145.487ZM302.117 138.487H308.462V129.048L302.117 138.487ZM315.2 130.936C315.2 128.235 316.38 126.374 318.452 126.374C320.523 126.374 321.729 128.235 321.729 130.936C321.729 133.636 320.523 135.472 318.452 135.472C316.38 135.472 315.2 133.636 315.2 130.936ZM329.988 126.662L317.429 145.487H315.2L327.759 126.662H329.988ZM316.878 130.936C316.878 132.719 317.403 133.846 318.452 133.846C319.5 133.846 319.998 132.719 319.998 130.936C319.998 129.153 319.5 127.999 318.452 127.999C317.403 127.999 316.878 129.153 316.878 130.936ZM329.988 141.214C329.988 143.914 328.782 145.776 326.737 145.776C324.639 145.776 323.459 143.914 323.459 141.214C323.459 138.513 324.639 136.678 326.737 136.678C328.782 136.678 329.988 138.513 329.988 141.214ZM325.164 141.214C325.164 142.997 325.662 144.15 326.737 144.15C327.759 144.15 328.284 142.997 328.284 141.214C328.284 139.431 327.759 138.303 326.737 138.303C325.662 138.303 325.164 139.431 325.164 141.214Z" fill="white"/>
</g>
<defs>
<clipPath id="clip0_2003_492">
<rect width="405.776" height="314.93" fill="white" transform="translate(0.40332 0.488281)"/>
</clipPath>
</defs>
</svg>
